<?xml version="1.0" encoding="UTF-8"?>
<svg width="453px" height="334px" viewBox="0 0 453 334" version="1.1" xmlns="http://www.w3.org/2000/svg" xmlns:xlink="http://www.w3.org/1999/xlink">
    <!-- Generator: sketchtool 62 (101010) - https://sketch.com -->
    <title>A598651D-9974-4ABF-8821-17D8FA7495EE</title>
    <desc>Created with sketchtool.</desc>
    <g id="Page-1" stroke="none" stroke-width="1" fill="none" fill-rule="evenodd" fill-opacity="0.5">
        <g id="Element" transform="translate(-326.000000, -204.000000)" fill="#FFFFFF">
            <path d="M482.804275,445.420194 L518.928013,445.420194 L536.349816,475.597948 L571.196044,475.59831 L588.618779,505.775448 L623.464574,505.77556 L641.526679,537.061228 L605.40294,537.061228 L587.979779,506.882228 L553.13491,506.883112 L535.711682,476.705228 L500.866879,476.704996 L482.804275,445.420194 Z M727.99693,324.710408 L746.059035,355.995925 L709.935796,355.99521 L692.513315,325.816833 L658.945956,325.817203 L693.792276,386.173008 L675.338968,386.171675 L681.214701,396.350082 L664.821045,396.349251 L693.792717,446.527843 L658.947652,446.528267 L676.370733,476.705755 L640.246994,476.705755 L622.823547,446.527052 L553.133639,446.527913 L535.071034,415.243263 L590.535509,415.241574 L584.761548,405.242751 L620.885287,405.2426 L638.947392,436.528117 L618.327983,436.527597 L623.462547,445.420271 L657.029905,445.419901 L622.822132,386.173502 L587.978473,386.172891 L570.555035,355.99477 L536.987676,355.99514 L554.411697,386.173251 L518.287959,386.173402 L500.865304,355.994925 L432.452897,355.99469 L449.236255,385.065061 L484.082333,385.065683 L502.144938,416.350334 L466.021199,416.350485 L448.598121,386.172341 L415.030763,386.172711 L420.164461,395.064886 L439.237094,395.066007 L457.299699,426.350658 L421.17596,426.350809 L415.40258,416.350705 L396.331135,416.350217 L378.907524,386.171996 L344.062605,386.172967 L326,354.888316 L362.123739,354.888165 L379.546524,385.065216 L413.113016,385.064345 L395.690514,354.887804 L430.53515,354.886324 L413.751792,325.815954 L378.906659,325.817494 L360.844055,294.532843 L396.967793,294.532692 L414.390792,324.709173 L447.956784,324.709169 L430.534119,294.533111 L465.38015,294.533014 L448.595926,265.462143 L413.750627,265.461971 L395.688023,234.17732 L465.37887,234.177232 L447.954832,204 L484.078571,204 L501.501742,234.176581 L536.347101,234.17725 L553.76934,264.354447 L588.615131,264.355366 L606.038303,294.531947 L675.7284,294.533158 L693.152315,324.710053 L727.99693,324.710408 Z M622.824574,506.884073 L589.259081,506.883211 L606.04244,535.953582 L639.609298,535.954077 L622.824574,506.884073 Z M570.556544,476.705957 L536.990551,476.705957 L553.77441,505.775466 L587.341268,505.775961 L570.556544,476.705957 Z M518.288013,446.528707 L484.722521,446.527845 L501.506379,475.59735 L535.072305,475.598461 L518.288013,446.528707 Z M361.484239,355.995812 L327.918246,355.995812 L344.702105,385.06532 L378.268963,385.065816 L361.484239,355.995812 Z M413.752269,386.173928 L380.186777,386.173066 L396.970635,415.24257 L414.763024,415.24257 L403.113356,395.066158 L418.88627,395.064776 L413.752269,386.173928 Z M438.597594,396.173654 L420.804517,396.172276 L432.454374,416.350932 L416.68127,416.349948 L421.81546,425.243162 L455.382319,425.243658 L438.597594,396.173654 Z M419.524961,396.172532 L405.031602,396.173658 L416.04208,415.243058 L430.536993,415.243932 L419.524961,396.172532 Z M431.174253,355.996166 L397.60876,355.995304 L414.392119,385.065834 L447.958594,385.065834 L431.174253,355.996166 Z M483.442833,386.17333 L449.876841,386.17333 L466.660699,415.242838 L500.227558,415.243334 L483.442833,386.17333 Z M570.555273,416.350758 L536.98928,416.350758 L553.773139,445.420267 L587.339997,445.420763 L570.555273,416.350758 Z M657.668628,446.5286 L624.102636,446.5286 L640.886494,475.598109 L674.453353,475.598605 L657.668628,446.5286 Z M591.174199,416.34933 L571.834606,416.350489 L588.618464,445.419993 L622.184823,445.421355 L617.049793,436.527487 L602.823653,436.528268 L591.174199,416.34933 Z M448.596324,325.818455 L415.030831,325.817593 L431.81419,354.887963 L465.381048,354.888459 L448.596324,325.818455 Z M396.328293,295.640339 L362.762301,295.640339 L379.546159,324.710093 L413.112585,324.710093 L396.328293,295.640339 Z M605.400598,416.350484 L592.453755,416.349074 L603.463153,435.420621 L616.411103,435.419731 L605.400598,416.350484 Z M535.709593,355.996247 L502.1441,355.995385 L518.927459,385.065755 L552.494317,385.066251 L535.709593,355.996247 Z M483.441562,325.818131 L449.87557,325.818131 L466.659428,354.887639 L500.226287,354.888135 L483.441562,325.818131 Z M620.245287,406.351113 L586.679795,406.350251 L591.813699,415.241684 L606.040098,415.242838 L617.689293,435.419841 L637.030012,435.421117 L620.245287,406.351113 Z M675.090612,416.350839 L641.52462,416.350839 L658.308478,445.420347 L691.875337,445.420843 L675.090612,416.350839 Z M466.018357,295.640607 L432.452365,295.640607 L449.236707,324.710279 L482.803082,324.710611 L466.018357,295.640607 Z M518.286572,325.816404 L484.720462,325.817611 L501.503938,354.886779 L535.06993,354.886779 L518.286572,325.816404 Z M663.542855,396.349141 L645.090962,396.350233 L639.215595,386.173192 L624.101329,386.173192 L640.885187,415.242773 L674.452045,415.243269 L663.542855,396.349141 Z M605.400107,355.995735 L571.834114,355.995735 L588.617973,385.065244 L622.183442,385.065746 L605.400107,355.995735 Z M553.131577,325.818485 L519.566084,325.817624 L536.349443,354.887994 L569.916301,354.88849 L553.131577,325.818485 Z M500.863546,295.640369 L467.297554,295.640369 L484.081412,324.710124 L517.647838,324.710124 L500.863546,295.640369 Z M500.862742,235.283362 L467.295384,235.283362 L501.502157,294.531863 L536.348372,294.532449 L571.194035,354.88799 L639.605576,354.88799 L622.822718,325.816488 L587.977252,325.817605 L553.131206,265.461728 L518.285967,265.462052 L500.862742,235.283362 Z M640.244932,355.996327 L606.67944,355.995466 L623.461932,385.065336 L638.576039,385.064936 L627.028358,365.065582 L645.481117,365.06499 L640.244932,355.996327 Z M483.440341,265.462845 L449.874349,265.462845 L466.658207,294.5326 L500.224633,294.5326 L483.440341,265.462845 Z M535.708372,295.640961 L502.142879,295.6401 L518.926738,324.709604 L552.49293,324.709253 L535.708372,295.640961 Z M431.171761,235.285682 L397.606269,235.28482 L414.390127,264.354325 L447.956736,264.355253 L431.171761,235.285682 Z M657.667321,386.173265 L640.494285,386.172436 L645.730462,395.242586 L662.902799,395.241751 L657.667321,386.173265 Z M646.120307,366.17188 L628.946604,366.173082 L639.855095,385.065545 L657.028791,385.065832 L646.120307,366.17188 Z M674.060277,386.172431 L658.946871,386.171619 L658.945871,386.173351 L664.182355,395.241494 L679.297321,395.243082 L674.060277,386.172431 Z M662.512596,366.17299 L647.400229,366.17299 L658.307171,385.065012 L673.420721,385.064175 L662.512596,366.17299 Z M466.017087,235.285408 L432.451094,235.285408 L449.234953,264.354917 L482.801811,264.355412 L466.017087,235.285408 Z M675.090171,355.995725 L641.524688,355.995725 L646.760673,365.064734 L663.152096,365.065431 L674.698911,385.064285 L691.874029,385.065508 L675.090171,355.995725 Z M724.155501,385.065618 L760.279239,385.065618 L778.341844,416.35042 L742.218106,416.35042 L724.155501,385.065618 Z M759.639739,386.173265 L726.073747,386.173265 L742.857606,415.242773 L776.424464,415.243269 L759.639739,386.173265 Z M657.666916,325.818566 L624.101424,325.817704 L640.884782,354.888075 L674.451641,354.88857 L657.666916,325.818566 Z M605.398886,295.64045 L571.832893,295.64045 L588.616752,324.709959 L622.18361,324.710454 L605.398886,295.64045 Z M587.975631,265.463013 L554.409639,265.463013 L571.193497,294.532521 L604.760356,294.533017 L587.975631,265.463013 Z M640.243661,295.641129 L606.678169,295.640267 L623.462027,324.709771 L657.02771,324.709771 L640.243661,295.641129 Z M483.439071,205.107646 L449.873078,205.107646 L466.656937,234.177155 L500.223795,234.177651 L483.439071,205.107646 Z M535.707101,235.285763 L502.141608,235.284901 L518.925467,264.354405 L552.491392,264.355517 L535.707101,235.285763 Z M727.35743,325.818055 L693.791438,325.818055 L710.575296,354.887563 L744.140789,354.888425 L727.35743,325.818055 Z M675.0889,295.640805 L641.522908,295.640805 L658.306766,324.710559 L691.873192,324.710559 L675.0889,295.640805 Z" id="Shape/bgcubes"></path>
        </g>
    </g>
</svg>