<?xml version="1.0" encoding="UTF-8"?>
<svg width="111px" height="36px" viewBox="0 0 111 36" version="1.1" xmlns="http://www.w3.org/2000/svg" xmlns:xlink="http://www.w3.org/1999/xlink">
    <!-- Generator: sketchtool 62 (101010) - https://sketch.com -->
    <title>64677847-A176-48F6-94E6-450362AEE63B</title>
    <desc>Created with sketchtool.</desc>
    <g id="Page-1" stroke="none" stroke-width="1" fill="none" fill-rule="evenodd">
        <g id="Element" transform="translate(-320.000000, -30.000000)" fill="#FEFEFE">
            <g id="CTlogo" transform="translate(320.000000, 30.000000)">
                <path d="M35.524613,17.1144094 C33.7486442,17.1349808 31.9723013,17.1258171 30.1960519,17.1193652 C30.0400831,17.1188042 29.8388571,17.2090379 29.7372156,16.9992094 C29.4895169,16.4873548 29.2478961,15.9725081 28.9850494,15.4194171 L29.5485195,15.4194171 C31.5116883,15.4194171 33.4749506,15.4123106 35.438026,15.4261496 C35.7779221,15.4285808 35.8818078,15.3546171 35.7739013,15.0104197 C35.6861922,14.7305548 35.6377558,14.4332977 35.6122286,14.1401548 C35.5809039,13.7780042 35.3985662,13.7048821 35.0619429,13.7070327 C32.7716883,13.7211522 30.4811532,13.7151678 28.1907117,13.7124561 C28.0390442,13.7122691 27.8540883,13.7754795 27.7424416,13.6469081 C27.2616312,13.0926016 26.7583792,12.5584925 26.1302961,11.9812769 L34.970961,11.9812769 C34.8349091,11.471199 34.6117091,11.0599574 34.4512519,10.6254327 C34.3469922,10.3432301 34.1904623,10.2692665 33.8999377,10.2696405 C27.5897455,10.2782431 21.2792727,10.2803938 14.9690805,10.2661761 C14.5714909,10.2652457 14.5207169,10.4050379 14.5224,10.7458691 C14.5345558,13.2699834 14.5378286,15.7941912 14.5201558,18.3181184 C14.5172571,18.7307626 14.6044987,18.8752301 15.0518338,18.8693392 C17.0458597,18.8429704 19.0404468,18.8669081 21.0346597,18.8495158 C21.3911065,18.8463366 21.4748883,18.953121 21.4730182,19.2966639 C21.4588987,21.8206847 21.4535688,24.344986 21.4764779,26.8688197 C21.4804987,27.3192405 21.3667948,27.4359366 20.9127273,27.4346275 C15.0231273,27.4182639 9.13352727,27.4231262 3.24383377,27.42696 C3.08197403,27.4270535 2.90524675,27.3668353 2.71224935,27.5154171 C3.01764156,27.9493808 3.33397403,28.369973 3.61720519,28.8117912 C3.78972468,29.0810899 4.0017974,29.1565496 4.3128,29.155334 C7.30425974,29.1443938 10.295813,29.1454223 13.2874597,29.1529029 C13.6857039,29.1539314 14.197839,28.9774847 14.4523636,29.2380873 C14.6848208,29.4762483 14.4729351,29.9838016 14.5280104,30.3650275 C14.5925299,30.8114275 14.3886857,30.861173 14.0074597,30.8589288 C11.3431792,30.8436873 8.67871169,30.8508873 6.01443117,30.8508873 L5.43983377,30.8508873 C5.99853506,31.4361444 6.55854545,31.8731003 7.11154286,32.3196873 C7.33053506,32.4965081 7.55532468,32.5658899 7.8364987,32.5643938 C9.76852987,32.5546691 11.700561,32.5593444 13.6325922,32.5593444 C14.5211844,32.5593444 14.5211844,32.5593444 14.5211844,33.4269912 C14.5211844,34.2913652 14.5211844,34.2913652 13.6312831,34.2913652 L10.4850701,34.2913652 C12.1896935,35.2760821 15.4323117,35.9728925 18.0187013,35.9985132 C20.8627013,36.0267522 24.3828468,35.0609236 25.4899636,34.2748145 L23.8208727,34.2748145 C24.2581091,33.986534 24.6591584,33.8126119 24.9379948,33.5215262 C25.8039584,32.6176925 26.855813,32.4155314 28.0353974,32.55336 C28.2455065,32.5779522 28.4910545,32.6302223 28.6753558,32.4954795 C29.3338286,32.0143886 29.9735065,31.5086119 30.6186078,30.8262016 L27.8619429,30.8262016 C28.2148364,30.2948977 28.5429506,29.8232509 28.8447896,29.335334 C28.958587,29.1515003 29.1052052,29.1474795 29.2795013,29.1478535 C30.1208727,29.1500977 30.9622442,29.1510327 31.8036156,29.1466379 C31.9378909,29.1459834 32.0946078,29.1998431 32.1990545,29.068934 C32.6001039,28.5660561 32.9910545,28.0557912 33.293361,27.4889548 C33.2388468,27.4521132 33.2268779,27.4368717 33.2148156,27.4367782 C32.2179429,27.4316353 31.2209766,27.4206016 30.2241039,27.4281756 C29.9264727,27.4304197 29.7820987,27.397786 29.9361039,27.0495678 C30.0800104,26.7241652 30.1943688,26.3793132 30.268987,26.0316561 C30.3285506,25.7542223 30.4623584,25.6977444 30.7188468,25.7029808 C31.4665247,25.7182223 32.2146701,25.7083106 32.9625351,25.7083106 C34.3828987,25.7083106 34.3737351,25.7049444 34.8672623,24.3722899 C34.9884468,24.0450171 34.9048519,23.9904094 34.5888,23.9943366 C33.4204364,24.0088301 32.2515117,23.9876977 31.0833351,24.0076145 C30.7326857,24.013599 30.6603117,23.9007366 30.7154805,23.5758951 C30.7699013,23.2555418 30.7851429,22.9243418 30.7771013,22.5988457 C30.7699948,22.322721 30.8800519,22.2596042 31.1339221,22.2624094 C32.1621195,22.2735366 33.1905974,22.2726951 34.2188883,22.264186 C34.6370494,22.2606327 35.1580675,22.4322171 35.4460675,22.1955522 C35.7511792,21.9448613 35.6597299,21.386534 35.7753039,20.9728613 C35.8723636,20.6253912 35.7785766,20.5514275 35.4397091,20.5554483 C34.0999481,20.5712509 32.759813,20.5619003 31.4198649,20.5619003 C30.6904208,20.5619003 30.6928519,20.5614327 30.5777455,19.8578899 C30.5451117,19.658534 30.513039,19.4552509 30.4455273,19.2664613 C30.3180779,18.9102016 30.4676883,18.8491418 30.7916883,18.8524145 C32.1159273,18.8656925 33.4403532,18.8579314 34.7647792,18.8579314 C36.0350649,18.8579314 36.0194494,18.8578379 36.0239485,17.5994275 C36.0252468,17.209786 35.9077091,17.109921 35.524613,17.1144094" id="Fill-1"></path>
                <path d="M67.6787003,14.7235138 C67.5393756,14.7235138 67.3963106,14.7029423 67.2612873,14.7271605 C66.7598119,14.8169268 66.6398431,14.5946618 66.6717288,14.1262878 C66.7124977,13.5300904 66.6816405,13.5279397 67.2967262,13.5279397 C67.6838431,13.5279397 68.0710535,13.5351397 68.4577964,13.5252281 C68.6574327,13.5200852 68.7136301,13.5947034 68.7271886,13.7934047 C68.7904925,14.7239813 68.7976925,14.7235138 67.6787003,14.7235138 M70.043386,11.2074826 C70.0705964,11.0290722 70.1520405,11.0196281 70.2857548,11.0211242 C70.5648717,11.0244904 70.8441756,11.0221527 71.1232925,11.0221527 C71.1698587,11.0219657 71.2163314,11.0219657 71.2628977,11.0219657 C72.1124042,11.0219657 72.0928613,11.0226203 72.116986,11.8556696 C72.1270847,12.2046358 72.0368509,12.3284384 71.6850795,12.2844904 C71.4406535,12.2539138 71.1894951,12.2785995 70.9413288,12.2785995 C69.9902743,12.2785995 69.8979834,12.1600332 70.043386,11.2074826 M68.3078119,18.1661423 C68.6294743,18.1633371 68.755147,18.2463709 68.7278431,18.5810306 C68.7012873,18.9058722 68.711573,19.2358566 68.7323314,19.5618203 C68.7604769,20.004854 69.0566119,20.241519 69.4818795,20.1887813 C69.8858275,20.1387553 70.0409548,19.8774982 70.0521756,19.2722306 C70.0588145,18.916906 69.8976094,18.4337579 70.1210899,18.2421631 C70.331199,18.0620696 70.800134,18.175493 71.1551782,18.1745579 C72.5889132,18.1708177 74.0226483,18.1768956 75.4562899,18.1706306 C75.9878743,18.168293 76.2909288,17.8813216 76.2090171,17.4604488 C76.1305652,17.0573423 75.8524769,16.9209164 75.4563834,16.92288 C73.7888821,16.9314826 72.1210068,16.9067034 70.45416,16.9397112 C70.0048613,16.9485943 70.0488094,16.7322203 70.0431055,16.4378618 C70.0372145,16.123867 70.050399,15.9437735 70.4706171,15.9525631 C71.9816821,15.9840748 73.4936821,15.9663086 75.0053081,15.9642514 C75.552321,15.9634099 75.8531314,15.7244073 75.8424717,15.310267 C75.8319055,14.9029527 75.5845808,14.7244488 75.0090483,14.7234203 C73.6376821,14.7208956 72.2662223,14.7225787 70.8948561,14.7225787 C69.978773,14.7225787 69.9870016,14.7230462 70.043386,13.7833995 C70.0557288,13.5774047 70.1160405,13.5196177 70.3141808,13.5241995 C70.8125704,13.5357943 71.3116145,13.5359813 71.8100977,13.5241995 C72.0147834,13.5194306 72.1067003,13.5563657 72.1214743,13.7948073 C72.1439158,14.1613527 72.4117184,14.35248 72.7512405,14.3601475 C73.0930068,14.3678151 73.377921,14.1781839 73.4021392,13.81968 C73.4230847,13.509893 73.5794275,13.5238255 73.7938379,13.5256021 C74.4950431,13.53168 75.1965288,13.5364488 75.897547,13.524667 C76.3459106,13.517093 76.6068873,13.2666826 76.5937029,12.8818099 C76.5789288,12.4512125 76.3159886,12.2828073 75.9182119,12.2798151 C75.3884042,12.2758878 74.8585029,12.278693 74.3286951,12.278693 C73.3966223,12.2785995 73.4091522,12.278693 73.4175678,11.3437216 C73.4200925,11.0686255 73.5087366,11.0036384 73.7639158,11.0146722 C74.1994691,11.033467 74.6364249,11.0221527 75.0727262,11.0191605 C75.559334,11.0157943 75.8356457,10.7924073 75.8430327,10.4032332 C75.8504197,10.0067657 75.5989808,9.80423065 75.0803003,9.8035761 C73.1946483,9.80142545 71.3089964,9.80273455 69.4233444,9.80282805 C67.5064613,9.80282805 65.5896717,9.80582026 63.6728821,9.79991459 C63.3520613,9.79890078 63.0753756,9.85089039 62.9610171,10.1931242 C62.8113132,10.6411138 63.1011834,11.0142982 63.6164042,11.0171034 C65.0189081,11.0246774 66.4215055,11.0198151 67.8241029,11.0198151 C68.7654327,11.0198151 68.7564561,11.0195345 68.7277496,11.9592748 C68.7203626,12.1990255 68.6576197,12.2909423 68.409921,12.2828073 C67.9428561,12.2675657 67.4747626,12.2694358 67.0076042,12.2826203 C66.7859003,12.2887917 66.6871574,12.2422255 66.6552717,11.9896644 C66.6108561,11.6390151 66.3481964,11.4384436 66.0007262,11.4419969 C65.659521,11.4453631 65.3953652,11.6192852 65.3607678,11.9929371 C65.3373912,12.2457787 65.2085392,12.2857995 64.989734,12.2824332 C64.3041444,12.271867 63.6182743,12.2731761 62.9326847,12.2804696 C62.4141912,12.2859865 62.1688301,12.4877735 62.1618171,12.8902255 C62.1545236,13.3097891 62.4130691,13.5215813 62.9547522,13.5268177 C63.48456,13.5319605 64.0144613,13.5279397 64.5443626,13.5279397 C65.3510431,13.5279397 65.3342119,13.5280332 65.3387938,14.3463086 C65.3405704,14.668719 65.2222847,14.7393164 64.9318535,14.7279086 C64.4651626,14.7095813 63.9960405,14.7063086 63.5300042,14.7327709 C63.0559262,14.7596073 62.8000925,15.1579449 62.9633548,15.5893839 C63.0896821,15.9231086 63.3827314,15.9663086 63.6948561,15.965841 C65.2376197,15.9637839 66.7803834,15.9634099 68.3232405,15.9677112 C68.4543366,15.9680852 68.6666899,15.8964592 68.6976405,16.0542982 C68.747573,16.3084488 68.7624405,16.5946722 68.6926847,16.8388177 C68.6413496,17.0186306 68.387386,16.9220384 68.2264613,16.922693 C66.5901912,16.9290514 64.9538275,16.9239086 63.3175574,16.9280229 C62.7522171,16.929519 62.4502847,17.26128 62.5770795,17.7309631 C62.685547,18.1327605 63.0079574,18.1734358 63.3520613,18.1732488 C65.0040405,18.1724073 66.6559262,18.1809164 68.3078119,18.1661423" id="Fill-3"></path>
                <path d="M57.3331792,15.7122701 C57.3327117,16.2088831 57.1947896,16.351013 56.7063117,16.3523221 C55.4752052,16.3555948 54.2440052,16.344187 53.0130857,16.3600831 C52.7169506,16.3639169 52.6162442,16.2967792 52.6230701,15.9813818 C52.6446701,14.9845091 52.6310182,13.9867948 52.6310182,12.9894545 C52.6310182,12.0077299 52.6421455,11.0257247 52.6241922,10.0442805 C52.6188623,9.75656104 52.6963792,9.67558442 52.9869039,9.67941818 C54.2333455,9.69587532 55.4802545,9.6940987 56.7268831,9.6825039 C57.1585091,9.67848312 57.3429974,9.84230649 57.3396764,10.2892675 C57.3259792,12.0968416 57.3351429,13.9046026 57.3331792,15.7122701 M50.7741662,16.3598961 C49.5289403,16.3446545 48.2833403,16.3470857 47.0379273,16.3569039 C46.609761,16.3602701 46.4076,16.1823273 46.4087174,15.7484571 C46.4135844,13.9269506 46.4133039,12.1055377 46.4087174,10.2840312 C46.4076935,9.85792208 46.5824571,9.67324675 47.0278286,9.67988571 C48.2885766,9.69858701 49.5499792,9.69671688 50.8107273,9.67904416 C51.1128468,9.67474286 51.1682026,9.77685195 51.1637143,10.0519481 C51.1478182,11.0324571 51.1574494,12.0133403 51.1574494,12.9942234 C51.1574494,13.9905351 51.1433299,14.9872208 51.1657714,15.9830649 C51.1728779,16.3018286 51.0675896,16.3635429 50.7741662,16.3598961 M57.258187,8.22557922 C55.9656468,8.22193247 54.6731065,8.22464416 53.3805662,8.22464416 C52.6453247,8.22464416 52.6461662,8.22464416 52.6300831,7.47238442 C52.6277455,7.3641039 52.6220416,7.25442078 52.6026857,7.1481039 C52.5159117,6.67252987 52.268774,6.48383377 51.7906753,6.5203013 C51.3447429,6.55433766 51.1691377,6.76023896 51.159413,7.26536104 C51.1557662,7.45218701 51.1370649,7.64191169 51.1620312,7.82537143 C51.2073818,8.15806753 51.0790909,8.23689351 50.7547169,8.23268571 C49.3222909,8.21417143 47.8893974,8.21978182 46.4567844,8.22642078 C45.5209714,8.23072208 44.9952779,8.76726234 44.9945299,9.70382338 C44.9928468,11.8996364 44.9929403,14.0953558 44.9944364,16.2910753 C44.9950909,17.2189403 45.5345299,17.7556675 46.4671636,17.7569766 C47.8842545,17.7589403 49.301626,17.7732468 50.7183429,17.7470649 C51.101626,17.7400519 51.1893351,17.8618909 51.1642753,18.2129143 C51.1356623,18.6157403 51.1546442,19.022213 51.1610026,19.4270961 C51.1689506,19.9269818 51.3599844,20.1592519 51.7751532,20.1895481 C52.2778442,20.2262026 52.5268519,20.0509714 52.5897818,19.5221922 C52.642987,19.0767273 52.6524312,18.6199481 52.621013,18.172426 C52.5949247,17.8018597 52.7327532,17.7454753 53.0639532,17.7497766 C54.4807636,17.7678234 55.8980416,17.7591273 57.315226,17.7567896 C58.2054078,17.7554805 58.7365247,17.229226 58.7377403,16.3503584 C58.7394234,15.2291221 58.7381143,14.1079792 58.7381143,12.9867429 C58.7381143,11.8965506 58.7383948,10.8064519 58.7381143,9.71635325 C58.7377403,8.72125714 58.2520675,8.22838442 57.258187,8.22557922" id="Fill-5"></path>
                <path d="M87.4095803,16.2550473 C88.5589621,16.2699148 89.7086244,16.2652395 90.8580997,16.2561694 C91.0673673,16.2544862 91.1260894,16.3269538 91.1127179,16.5235979 C91.0965413,16.7596083 91.1297361,17.0129174 90.7762816,17.0122629 C90.2014036,17.0109538 89.6267127,17.0118888 89.0519283,17.0118888 L89.0519283,17.0133849 C88.5081881,17.0133849 87.9637932,16.9963668 87.4210816,17.0200239 C87.1115751,17.0334888 87.1444894,16.849281 87.1621621,16.6659148 C87.1782452,16.4966681 87.0430348,16.2502784 87.4095803,16.2550473 M87.4451127,14.4250317 C88.5193153,14.443733 89.5941725,14.4375616 90.6686556,14.429146 C91.0177153,14.4263408 91.1150556,14.5855823 91.1188894,14.9161278 C91.1234712,15.307359 90.8594088,15.1833694 90.6725829,15.1872966 C90.1587647,15.1980499 89.644666,15.1910369 89.1307543,15.1910369 C88.5700894,15.1909434 88.0086764,15.1730836 87.4491335,15.1976758 C87.1195231,15.2122629 87.1557101,15.019733 87.1576738,14.8133642 C87.1596374,14.6116706 87.1120426,14.4192343 87.4451127,14.4250317 M85.822401,16.6345901 C85.8199699,16.8876187 85.8040738,17.0394732 85.4787647,17.021333 C84.9505465,16.9920655 84.4196166,17.0134784 83.8899023,17.0134784 C83.3601881,17.0132914 82.8300062,17.000294 82.3009465,17.0178732 C81.9512322,17.0295616 81.8481881,16.8720031 81.8261205,16.5450109 C81.7996582,16.1539668 82.0605413,16.2641174 82.2501725,16.2631823 C83.3251231,16.2574784 84.4004478,16.2738421 85.4751179,16.2521486 C85.7929465,16.2456966 85.8250192,16.3742681 85.822401,16.6345901 M81.8321984,14.9511927 C81.8448218,14.6851668 81.8520218,14.4387771 82.2083751,14.4368135 C82.7209777,14.4338213 83.2336738,14.4327927 83.7462764,14.4320447 C84.3366764,14.4312966 84.9275439,14.4470992 85.5171958,14.4257797 C85.835679,14.4141849 85.8189413,14.5959616 85.8175387,14.8098109 C85.8159491,15.0198265 85.8426919,15.2088966 85.5204686,15.1970213 C84.9464322,15.1757953 84.3710868,15.1910369 83.7962088,15.1910369 C83.2679906,15.1909434 82.7397725,15.1957122 82.2115543,15.1881382 C82.0483855,15.1858005 81.8163958,15.2799616 81.8321984,14.9511927 M92.9402325,19.4303408 C92.9372166,19.0789434 92.6655803,18.8823927 92.1713984,18.8819252 C90.753279,18.8805226 89.335253,18.8826732 87.917227,18.8795875 C87.7631283,18.8792135 87.6036062,18.8748187 87.4561465,18.8360135 C87.168614,18.7602732 87.1427127,18.5250109 87.1613205,18.2774057 C87.1836686,17.9788395 87.4172478,18.1095616 87.5533932,18.1084395 C88.7999283,18.0977797 90.0466504,18.109094 91.2931855,18.0995564 C92.0387127,18.0938525 92.3974971,17.7352551 92.4007699,17.0196499 C92.4046036,16.1626629 92.402453,15.3055823 92.4016114,14.4485018 C92.4009569,13.630133 92.1382971,13.3662577 91.3137569,13.3652291 C89.6931958,13.3630784 88.0725413,13.3646681 86.4519803,13.3645745 C84.8158036,13.3645745 83.1795335,13.3634525 81.5433569,13.3651356 C80.811014,13.3658836 80.5501309,13.6208758 80.5476062,14.3395668 C80.5447075,15.2277849 80.544427,16.1160031 80.5476997,17.0042213 C80.5505984,17.7972499 80.8551491,18.0997434 81.6546296,18.1014265 C82.9168738,18.1042317 84.1791179,18.109281 85.4411751,18.0965642 C85.713653,18.0938525 85.8114608,18.151359 85.8245517,18.4512343 C85.8700894,19.4995356 86.4087803,19.9936239 87.4600738,19.995681 C89.0338816,19.9985797 90.6077829,19.9974897 92.1816842,19.995681 C92.662027,19.9950265 92.943201,19.7812706 92.9402325,19.4303408" id="Fill-7"></path>
                <path d="M80.062747,12.9434119 C80.4615522,12.943973 80.6980301,12.6532613 80.7042016,12.1343003 C80.710934,11.5735418 80.7133652,11.0125029 80.702986,10.4518379 C80.6972821,10.1456042 80.8014483,9.99057039 81.1326483,9.99225351 C82.6125756,9.99992104 84.0925964,10.0003886 85.5724301,9.99057039 C85.8041392,9.98898078 85.858186,10.0673392 85.8543522,10.2843678 C85.8423834,10.9697704 85.8544457,11.65536 85.8487418,12.3407626 C85.8464042,12.6300717 85.9344873,12.858321 86.2066847,12.9910068 C86.6684197,13.2159834 87.1161288,12.9044197 87.1359522,12.3102795 C87.1582068,11.6410535 87.1525029,10.9703314 87.1361392,10.3009184 C87.1299678,10.0527522 87.2065496,9.98832623 87.4498535,9.99019636 C88.8985496,10.0009496 90.3474327,10.0039418 91.7960353,9.98991584 C92.1778223,9.98617558 92.2860094,10.16496 92.281521,10.5021444 C92.274321,11.0472873 92.2730119,11.5927106 92.2819886,12.1378535 C92.2905912,12.6607418 92.5300613,12.9551938 92.9182068,12.9470587 C93.31056,12.9387366 93.5512457,12.6475574 93.5597548,12.1294379 C93.5708821,11.4442223 93.5696665,10.7585392 93.5606899,10.0732301 C93.5499366,9.25364571 93.167121,8.87849766 92.3480042,8.87709506 C90.7434327,8.87428987 89.1387678,8.87522494 87.5341964,8.87737558 C87.31296,8.87774961 87.1307158,8.91393662 87.1264145,8.56291325 C87.1219262,8.20038857 87.2954743,8.2123574 87.5485964,8.21376 C88.8571262,8.22039896 90.1657496,8.21731325 91.474373,8.21656519 C92.0096977,8.21619117 92.2789964,8.03385351 92.2925548,7.66712104 C92.3068613,7.27598338 92.0500925,7.09991065 91.4615626,7.09972364 C89.8102379,7.09934961 88.1590068,7.09963013 86.5076821,7.09963013 C84.8096042,7.09972364 83.1115262,7.10262234 81.4134483,7.09737468 C81.0296042,7.0962639 80.7217808,7.17808208 80.6971886,7.63317818 C80.6757756,8.0294587 80.9061756,8.21488208 81.4132613,8.21581714 C82.7530223,8.21852883 84.0928769,8.21796779 85.4325444,8.21563013 C85.6679938,8.21534961 85.8670691,8.16588468 85.8674431,8.55169247 C85.8679106,8.95274182 85.6438691,8.87550545 85.4220717,8.87569247 C83.8018847,8.87672104 82.1816977,8.87260675 80.5616042,8.87793662 C79.8279522,8.88036779 79.4129704,9.30376519 79.4082951,10.0405029 C79.4039938,10.741521 79.4025912,11.4425392 79.4090431,12.1435574 C79.4136249,12.6499886 79.6600145,12.9427574 80.062747,12.9434119" id="Fill-9"></path>
                <path d="M107.80358,18.7003636 C106.885908,18.6889558 105.967861,18.6965299 105.050095,18.6965299 C104.132141,18.6966234 103.214095,18.6854026 102.296515,18.7018597 C101.902198,18.7089662 101.718458,18.5743169 101.742115,18.1618597 C101.763435,17.7897039 101.757824,17.4149299 101.743331,17.0421195 C101.730614,16.711387 101.862271,16.5466286 102.200671,16.547002 C104.08305,16.5489662 105.965523,16.5479377 107.847902,16.5480312 C108.180692,16.5480312 108.318427,16.7122286 108.304495,17.0455792 C108.288318,17.4338182 108.2857,17.8240208 108.305056,18.2119792 C108.323663,18.5841351 108.154136,18.7047584 107.80358,18.7003636 M108.504411,15.2560519 C107.788058,15.2451117 107.071424,15.2534338 106.354884,15.2534338 C104.734884,15.2534338 103.114791,15.2500675 101.494884,15.2549299 C100.793959,15.257174 100.433492,15.5411532 100.421243,16.1432416 C100.401513,17.1086026 100.401419,18.0749922 100.425824,19.0400727 C100.441908,19.677226 100.801721,19.9936519 101.44065,19.9954286 C102.608827,19.9986078 103.777097,19.9962701 104.945461,19.9963636 C106.098115,19.9963636 107.250863,19.9977662 108.403518,19.9958961 C109.209918,19.9946805 109.645845,19.5732468 109.656037,18.7676883 C109.665856,17.9889662 109.660058,17.2100571 109.657627,16.4311481 C109.655009,15.6067013 109.329326,15.2686753 108.504411,15.2560519" id="Fill-11"></path>
                <path d="M63.3354919,8.76356883 C64.1612478,8.76861818 64.9871906,8.77048831 65.812853,8.76113766 C66.0249257,8.75870649 66.158079,8.79087273 66.2052997,9.03492468 C66.267201,9.35396883 66.5155543,9.5047013 66.8180478,9.50853506 C67.1197932,9.51236883 67.3732894,9.37005195 67.4456634,9.05353247 C67.5028894,8.80274805 67.6338919,8.75599481 67.8699958,8.75917403 C68.8825777,8.77273247 69.89544,8.77142338 70.9081153,8.76001558 C71.1393569,8.75749091 71.2631595,8.78535584 71.307201,9.05727273 C71.350027,9.32264416 71.5837932,9.46879481 71.8491647,9.50217662 C72.1164997,9.53602597 72.422453,9.44242597 72.4702348,9.19603636 C72.5778608,8.64191688 72.9643231,8.77310649 73.308053,8.76609351 C73.6039075,8.7602026 73.9000426,8.76497143 74.1960842,8.76487792 C74.6011543,8.76478442 75.0063179,8.76805714 75.4114816,8.76403636 C75.9272634,8.7588 76.2226504,8.52213506 76.2168459,8.1266026 C76.2109621,7.73920519 75.9468997,7.52806753 75.4356997,7.52432727 C74.6255595,7.51843636 73.8152322,7.5160987 73.0051855,7.52629091 C72.7403751,7.52965714 72.5657049,7.51413506 72.5772062,7.16442078 C72.5905777,6.75523636 72.3377361,6.54091948 71.9307023,6.53063377 C71.5225465,6.52025455 71.2849465,6.74102338 71.2768114,7.20341299 C71.2718556,7.48383896 71.1716166,7.53105974 70.9216738,7.52788052 C69.9090919,7.51497662 68.8961361,7.51422857 67.8836478,7.52825455 C67.6166868,7.5319013 67.5014868,7.48383896 67.490453,7.18097143 C67.4765205,6.80058701 67.2636062,6.53661818 66.8438556,6.52651948 C66.3982036,6.51595325 66.1731335,6.78796364 66.1577984,7.18807792 C66.1458296,7.50123117 66.01464,7.53143377 65.7586192,7.52731948 C64.948666,7.51450909 64.1382452,7.51824935 63.3281049,7.52414026 C62.7969881,7.52816104 62.5624738,7.71564156 62.5517205,8.12099221 C62.5404062,8.54635325 62.7940894,8.76038961 63.3354919,8.76356883" id="Fill-13"></path>
                <path d="M98.8517922,6.74705455 C98.4856208,6.84 98.3468571,7.11229091 98.2896312,7.46583896 C98.013039,9.17616623 97.3857974,10.7503481 96.4310961,12.1957714 C96.3206649,12.3630545 96.2187429,12.5390338 96.1377662,12.722026 C96.0113455,13.0075948 96.1310338,13.2436052 96.3503065,13.4222961 C96.5632208,13.5957506 96.8089558,13.607626 97.0445922,13.457174 C97.170639,13.3765714 97.2830338,13.2743688 97.473039,13.126161 C97.473039,14.7274597 97.4728519,16.2531117 97.4731325,17.7787636 C97.473226,18.3398026 97.4580779,18.9013091 97.4793974,19.4615065 C97.4994078,19.9838338 97.7941403,20.2463065 98.2406338,20.1881455 C98.6362597,20.1365299 98.8366442,19.8378701 98.8370182,19.2766442 C98.8386078,16.4873455 98.8401039,13.6980468 98.8344935,10.9087481 C98.8339325,10.5933506 98.877787,10.2971221 98.9841974,9.99836883 C99.2708883,9.19309091 99.4919377,8.36733506 99.6212571,7.52241039 C99.6997091,7.01027532 99.3065143,6.63157403 98.8517922,6.74705455" id="Fill-15"></path>
                <path d="M21.562747,6.90393974 C21.2890535,7.1351813 21.5142171,7.66695273 21.4611055,8.06276571 C21.40416,8.48672416 21.576399,8.57705143 21.98016,8.57527481 C25.6073704,8.55947221 29.2346743,8.5665787 32.8619782,8.56377351 C32.9951314,8.56368 33.1375418,8.60613195 33.3243678,8.48494753 C33.0134587,8.03901506 32.6947886,7.60701506 32.4049184,7.15631377 C32.2430587,6.90459429 32.0506223,6.8241787 31.7519626,6.82539429 C28.7318899,6.8370826 25.7117236,6.8313787 22.6915574,6.83399688 C22.3046275,6.83437091 21.7940821,6.70851117 21.562747,6.90393974" id="Fill-17"></path>
                <path d="M10.5760519,1.66136727 L25.4606026,1.66136727 C20.4994286,-0.551650909 15.5378805,-0.555858701 10.5760519,1.66136727" id="Fill-19"></path>
                <path d="M21.8796966,3.41515636 C21.554107,3.41225766 21.4335771,3.50557714 21.460133,3.83425247 C21.4850992,4.14366545 21.4820135,4.45756675 21.460694,4.76754078 C21.4410577,5.05208104 21.5376499,5.14091221 21.8267719,5.13679792 C22.9316447,5.12090182 24.0369849,5.13043948 25.1422317,5.13043948 L30.6287252,5.13043948 C30.3653174,4.88694857 30.1985953,4.72593039 30.0244862,4.57323429 C28.7123096,3.42151481 28.7118421,3.42198234 26.9696291,3.42198234 C25.2729538,3.42198234 23.5762784,3.42993039 21.8796966,3.41515636" id="Fill-21"></path>
                <path d="M110.310452,9.37391377 C110.144852,9.11536831 109.876301,9.09956571 109.605974,9.09947221 C108.390483,9.09919169 107.174992,9.0993787 105.959408,9.09928519 C104.198494,9.09928519 102.437579,9.09928519 100.676665,9.0993787 C100.551927,9.0993787 100.426816,9.09376831 100.302732,9.10274494 C99.8718545,9.1338826 99.5843221,9.4017787 99.6244364,9.7717839 C99.6666078,10.161893 99.8840104,10.3838774 100.306099,10.3823813 C101.88,10.3771449 103.453901,10.3803242 105.027803,10.3803242 L105.027803,10.3821943 C106.586182,10.3821943 108.144561,10.3814462 109.70294,10.3829437 C109.964291,10.3832229 110.199366,10.3392748 110.337101,10.0820384 C110.466701,9.84013714 110.455948,9.60104104 110.310452,9.37391377" id="Fill-23"></path>
                <path d="M65.1516499,27.5738961 C64.7609797,27.5667896 64.5002836,27.3150701 64.499441,26.9445974 C64.4987875,26.5661766 64.7984758,26.269387 65.1768031,26.2739688 C65.5483044,26.2784571 65.852294,26.5978753 65.8361174,26.9666649 C65.8204083,27.3226442 65.5296031,27.5807221 65.1516499,27.5738961 M64.729094,29.6570338 C64.9132083,29.6340312 65.1026525,29.653013 65.2896655,29.653013 L65.2896655,29.6702182 C65.49192,29.6702182 65.6956706,29.6545091 65.8958681,29.674613 C66.1023304,29.6952779 66.2962629,29.7703636 66.3752758,29.991039 C66.4573745,30.2205039 66.3790161,30.4188312 66.2278161,30.5933143 C65.8142369,31.0706649 64.6841174,31.1616468 64.1965745,30.7591948 C64.0391096,30.6292208 63.9540187,30.4783948 64.0391096,30.2698753 C64.1688966,29.9516727 64.3663823,29.7023844 64.729094,29.6570338 M66.8717953,26.3084727 C67.0731148,26.312026 67.2719096,26.3556935 67.2579771,26.0220623 C67.2439512,25.6819792 67.0139252,25.815787 66.8626317,25.8051273 C66.3837849,25.7715584 65.9027875,25.8393506 65.4228187,25.7329403 C65.103307,25.6619688 64.7707979,25.7017091 64.4577382,25.8153195 C63.692481,26.0934078 63.403546,26.9370234 63.8745382,27.5847429 C64.0041382,27.7628727 63.9665486,27.8076623 63.8268499,27.9341766 C63.3469745,28.3689818 63.2688031,28.8913091 63.6461018,29.3280779 C63.8188083,29.5279013 63.7861745,29.5823221 63.6091668,29.7420312 C63.0237226,30.2697818 63.0694473,31.0082961 63.7311927,31.3138753 C64.6303512,31.7291377 65.5626109,31.7853351 66.4574681,31.2783429 C67.0769486,30.9275065 67.3693434,30.2847429 67.2149642,29.7164104 C67.0665694,29.1693039 66.5911823,28.8863532 65.8150784,28.883361 C65.7216655,28.882987 65.6282525,28.8867273 65.5350265,28.882613 C65.1945694,28.8675584 64.8506525,28.9239429 64.5136551,28.8340831 C64.3511408,28.7907896 64.2230369,28.7124312 64.2229434,28.522426 C64.2228499,28.3343844 64.3470265,28.2615429 64.5089797,28.2067481 C64.7831408,28.1138026 65.0640343,28.1509247 65.3420291,28.1385818 C66.4136135,28.090987 66.9039616,27.3844519 66.5418109,26.3081922 C66.6907668,26.3081922 66.781281,26.3068831 66.8717953,26.3084727" id="Fill-25"></path>
                <path d="M9.80164987,25.7081517 C9.23154078,25.1411283 8.73053299,24.6586348 8.29516675,24.1162971 C8.17753558,23.9697725 8.01754597,24.0014712 7.86606545,24.0010971 C7.10426805,23.9989465 6.34247065,24.0000686 5.58067325,24.0000686 C4.21257974,24.0000686 2.84439273,23.9978244 1.47629922,24.0039958 C1.35352519,24.0046504 1.18736416,23.9278816 1.11424208,24.1034868 C1.0613174,24.2306556 1.68407065,25.6522348 1.80740571,25.6946868 C1.86388364,25.7141361 1.93036675,25.7076842 1.99226805,25.7076842 C4.5561226,25.7082452 7.11988364,25.7081517 9.80164987,25.7081517" id="Fill-27"></path>
                <path d="M109.589797,26.8235626 C109.566888,26.0533496 109.002296,25.6089132 108.234982,25.7266379 C107.926036,25.7738587 107.634857,25.8797081 107.377901,26.0697132 C107.316,26.1155314 107.253351,26.2336301 107.14666,26.1227314 C106.536904,25.4886639 105.897787,25.6610899 105.248197,26.051386 C105.179751,26.0926223 105.096062,26.1746275 105.042951,26.0135158 C104.896052,25.5684249 104.657984,25.994721 104.46321,25.9689132 C104.252166,25.9410483 104.139117,26.0627938 104.149309,26.311521 C104.169787,26.8090691 104.155387,27.3079262 104.155387,27.8062223 C104.155387,28.2577652 104.182971,28.7115522 104.146784,29.1601964 C104.117236,29.5273964 104.250483,29.6175366 104.590099,29.5878016 C104.86987,29.5633029 105.1416,29.6461496 105.108592,29.1780561 C105.062868,28.5272509 105.096623,27.8707418 105.097278,27.2167574 C105.097745,26.7204249 105.357226,26.4558016 105.850379,26.4468249 C106.243106,26.4396249 106.410764,26.6466483 106.416281,27.1780457 C106.423387,27.8631678 106.444987,28.5498795 106.408332,29.2330379 C106.38561,29.6549392 106.638078,29.5813496 106.877455,29.5802275 C107.117673,29.579199 107.373881,29.6543782 107.353029,29.2306068 C107.317964,28.5160301 107.34667,27.7984613 107.34134,27.0822016 C107.339938,26.88696 107.353403,26.728373 107.560239,26.6184094 C107.817943,26.4813288 108.080603,26.3653808 108.355138,26.490399 C108.654826,26.6269184 108.663803,26.9295055 108.66399,27.2159158 C108.664364,27.9010379 108.683906,28.5870016 108.656135,29.2710951 C108.641361,29.630347 108.856239,29.6095886 109.066255,29.5733081 C109.262151,29.5394587 109.606161,29.7657444 109.600177,29.299334 C109.58961,28.4740457 109.614296,27.6481029 109.589797,26.8235626" id="Fill-29"></path>
                <path d="M101.367435,8.39391896 C103.811508,8.39625662 106.25558,8.39616312 108.699653,8.39391896 C109.213939,8.39335792 109.490437,8.16211636 109.493361,7.74872416 C109.496328,7.3302826 109.225253,7.10156571 108.710219,7.10044364 C107.480422,7.09801247 106.250718,7.09960208 105.020827,7.09960208 C103.806552,7.09960208 102.59237,7.09829299 101.378095,7.10025662 C100.831269,7.10109818 100.543362,7.33598649 100.556079,7.76125403 C100.568235,8.16744623 100.849222,8.39335792 101.367435,8.39391896" id="Fill-31"></path>
                <path d="M101.351632,12.4237403 C102.582552,12.4260779 103.813471,12.4245818 105.044297,12.4245818 C106.259601,12.4245818 107.474905,12.4261714 108.690209,12.4237403 C109.19477,12.4226182 109.491372,12.1807169 109.492592,11.7812571 C109.493897,11.3859117 109.190936,11.1312 108.692359,11.1305455 C106.246136,11.1276468 103.799913,11.1278338 101.353689,11.1303584 C100.844827,11.1309195 100.558791,11.3706701 100.556912,11.7784519 C100.55505,12.182774 100.845669,12.4228052 101.351632,12.4237403" id="Fill-33"></path>
                <path d="M49.3744395,28.656346 C48.8135875,28.9180706 48.2021486,28.9920343 47.5994992,28.8327927 C46.5286629,28.5499356 45.9180655,27.4638577 46.1174213,26.2603356 C46.2975148,25.1725745 47.1850784,24.488481 48.3148239,24.5549642 C48.6600499,24.5752551 49.0049018,24.6166784 49.3068343,24.7777901 C49.6034369,24.9362836 49.6428966,24.7463719 49.719946,24.552346 C49.799333,24.3525226 49.9275304,24.1663512 49.6054005,24.0422681 C49.1052343,23.8496447 48.5905745,23.7595044 48.2612447,23.7500603 C46.3323927,23.7336031 45.0227408,24.9637745 45.0060031,26.6517538 C44.9948758,27.7712135 45.4284655,28.6946836 46.4180447,29.2675044 C47.4986057,29.8931564 48.6196551,29.7784239 49.7367771,29.3301538 C49.9841018,29.2310369 49.9161226,29.0825486 49.8208395,28.9349953 C49.72032,28.779494 49.7291096,28.4908395 49.3744395,28.656346" id="Fill-35"></path>
                <path d="M101.256302,14.4153257 C102.515835,14.4284166 103.775648,14.4193465 105.035274,14.419066 C106.295087,14.4187855 107.554713,14.4254244 108.814339,14.4151387 C109.255035,14.4114919 109.514796,14.1520114 109.490017,13.7613413 C109.464302,13.3583283 109.244188,13.1460686 108.825372,13.1463488 C106.306027,13.1483127 103.786682,13.1461621 101.267243,13.1470971 C101.007482,13.1470971 100.774463,13.2077829 100.64103,13.4652997 C100.399128,13.9321777 100.692832,14.4095283 101.256302,14.4153257" id="Fill-37"></path>
                <path d="M3.41175273,22.2669444 L6.98426182,22.2669444 C6.72842805,21.7376977 6.49335273,21.3013964 6.3071813,20.8451782 C6.21245922,20.6130016 6.08725403,20.5563366 5.85573195,20.5574425 C4.08107221,20.5656873 2.30650597,20.5657808 0.531846234,20.5577392 C0.274142338,20.5566171 0.143607273,20.5995366 0.245996883,20.8910899 C0.286485195,21.0063834 0.285176104,21.1359834 0.305092987,21.2588509 C0.469196883,22.2669444 0.46929039,22.2669444 1.49702026,22.2669444 L3.41175273,22.2669444 Z" id="Fill-39"></path>
                <path d="M52.8587439,25.7130795 C52.4122504,25.713734 52.0135387,25.8722275 51.5666712,26.145921 C51.5666712,25.4445288 51.5692894,24.8384197 51.564053,24.2324042 C51.5632114,24.1302951 51.6223075,23.9654431 51.5057984,23.9366431 C51.2577257,23.8753029 51.0323751,24.0350119 50.7927179,24.0813912 C50.5984114,24.1189808 50.6231906,24.2684042 50.6232842,24.4073548 C50.6236582,26.0277288 50.6333829,27.6481029 50.6170192,29.2682899 C50.6126244,29.7194587 50.9168945,29.5610587 51.1282192,29.5761132 C51.3483335,29.5916353 51.5961257,29.6606431 51.5757413,29.2567886 C51.542079,28.5885912 51.5660166,27.9174016 51.5668582,27.247521 C51.5675127,26.7417444 51.8840322,26.4640301 52.4713465,26.4515003 C52.9245725,26.4419626 53.1012062,26.6475834 53.1070971,27.2233964 C53.1143906,27.9244145 53.1181309,28.6257132 53.1055075,29.3266379 C53.0988686,29.6850483 53.3580686,29.5961236 53.5237621,29.5695678 C53.7075958,29.5402068 54.0459023,29.7674275 54.04824,29.3384197 C54.0529153,28.4815262 54.0743283,27.6234171 54.0344945,26.7683003 C54.0023283,26.0778483 53.5522816,25.7121444 52.8587439,25.7130795" id="Fill-41"></path>
                <path d="M71.3530379,26.7842057 C71.3378899,26.1213382 70.9181392,25.7324447 70.2495678,25.7136499 C69.7877392,25.7006525 69.3697652,25.8463356 68.9070016,26.1449953 C68.9070016,25.4535148 68.9087782,24.8473122 68.9053184,24.2412031 C68.9046639,24.1362888 68.9568405,23.9674161 68.8592197,23.9382421 C68.6112405,23.8641849 68.3823366,24.0249226 68.1417444,24.0709278 C67.95576,24.1065538 67.969786,24.2563512 67.9698795,24.3994161 C67.9713756,26.01792 67.9832509,27.6366109 67.9618379,29.2548343 C67.9566951,29.6493382 68.1844769,29.5915512 68.4096405,29.5774317 C68.625921,29.5638732 68.9299106,29.7069382 68.913547,29.2613797 C68.8885808,28.5775668 68.90616,27.8920706 68.9072821,27.2073226 C68.9081236,26.7370784 69.2224925,26.4691823 69.7901704,26.4517901 C70.2392821,26.4381382 70.4244249,26.6390836 70.4279782,27.1640291 C70.4328405,27.8800083 70.4372353,28.5959875 70.4265756,29.3116862 C70.4200301,29.7438732 70.7372977,29.5578888 70.9231886,29.5714473 C71.1048717,29.5846317 71.3748249,29.6977745 71.3656613,29.3051408 C71.3458379,28.4652655 71.3721132,27.6241745 71.3530379,26.7842057" id="Fill-43"></path>
                <path d="M77.0103584,25.8079512 C76.758826,25.6750784 76.3288831,25.8466629 76.2321039,26.1245642 C75.9999273,26.7910784 75.7705558,27.4585278 75.5042494,28.2294888 C75.2846961,27.5745694 75.0964675,27.0197018 74.9128208,26.4634317 C74.6742857,25.7406265 74.6757818,25.7400655 73.7770909,25.8496551 C74.4349091,26.6815823 74.0266597,27.4388914 73.6291636,28.2835356 C73.4169974,27.6447927 73.2263377,27.0730005 73.037174,26.5007408 C72.7979844,25.7776551 72.7984519,25.7771875 72.0183273,25.8067356 C71.993174,25.8077642 71.9688623,25.8324499 71.9217351,25.8585382 C72.3344727,27.0387771 72.7498286,28.2214473 73.1604156,29.405707 C73.2187636,29.5738317 73.3092779,29.6376966 73.4975065,29.6419044 C73.7059325,29.6465797 73.8037403,29.5732706 73.871439,29.3865382 C74.0630338,28.857759 74.2682805,28.3338421 74.4912935,27.7469018 C74.7052364,28.3451564 74.9047792,28.8665486 75.0743065,29.3975719 C75.1334026,29.5824343 75.2160623,29.6459252 75.4012052,29.6368551 C75.5632519,29.6288135 75.6868675,29.6286265 75.7602701,29.4307668 C76.1755325,28.311681 76.6098701,27.1997018 77.0313974,26.0827668 C77.0628156,25.9996395 77.1638961,25.8890213 77.0103584,25.8079512" id="Fill-45"></path>
                <path d="M2.81048727,18.8578847 L4.95524571,18.8578847 C5.60408727,18.8577912 5.60240416,18.8581652 5.4647626,18.1996925 C5.42034701,17.9870587 5.35124571,17.7712457 5.35666909,17.5584249 C5.36667429,17.163921 5.16432623,17.112773 4.83200416,17.1173548 C3.66653922,17.1331574 2.50079377,17.1234327 1.33514182,17.1234327 C-0.0392166234,17.1234327 -0.030427013,17.1231522 0.0124924675,18.4956405 C0.0213755844,18.7793392 0.100482078,18.869947 0.386050909,18.8637756 C1.19385351,18.8466639 2.00231065,18.8577912 2.81048727,18.8578847" id="Fill-47"></path>
                <path d="M86.1635875,24.6188478 C86.4514005,24.6368945 86.4704758,24.4817673 86.4420499,24.2775491 C86.4183927,24.1072738 86.559307,23.8504114 86.1959408,23.8527491 C84.8274732,23.8612582 83.4589122,23.8634088 82.0904447,23.8511281 C81.7328758,23.8479803 81.8483564,24.0872634 81.8346109,24.2636166 C81.8202109,24.449414 81.7887927,24.6405413 82.0957745,24.6180997 C82.4207096,24.5943491 82.7519096,24.6421309 83.07432,24.6056634 C83.5090317,24.5565725 83.6555564,24.6777569 83.6430265,25.1473465 C83.606746,26.514879 83.6410629,27.8840945 83.6246057,29.2524686 C83.6182473,29.7759179 83.9880655,29.5410296 84.211733,29.5738504 C84.434746,29.6067647 84.6686992,29.6479075 84.6493434,29.2520945 C84.614559,28.538453 84.6394317,27.8219127 84.6394317,27.1064945 C84.6395252,26.3911699 84.6557953,25.6752842 84.6317642,24.9607075 C84.621759,24.6619543 84.7191927,24.5903283 84.9979356,24.607066 C85.3854265,24.6302556 85.7762836,24.5944426 86.1635875,24.6188478" id="Fill-49"></path>
                <path d="M101.8535,28.8449112 C101.431786,29.1677891 100.815765,29.0454826 100.520472,28.5739294 C100.210217,28.0783449 100.204139,27.5455449 100.39536,27.0112488 C100.529916,26.6350722 100.793791,26.3909268 101.213635,26.3549268 C101.652929,26.3173371 101.949812,26.524267 102.16497,26.8904384 C102.312337,27.1412229 102.336181,27.416319 102.354695,27.6602774 C102.345625,28.1462306 102.230892,28.5558826 101.8535,28.8449112 M101.346321,25.7128177 C100.138872,25.7041216 99.2698223,26.5334306 99.2728999,27.6913216 C99.2760873,28.8410774 100.108763,29.6434566 101.307048,29.6515917 C102.53376,29.6598203 103.377843,28.8564125 103.374301,27.6839345 C103.37083,26.531841 102.537033,25.7214203 101.346321,25.7128177" id="Fill-51"></path>
                <path d="M0.523374545,15.4244384 C1.23944727,15.4091969 1.95608104,15.4192956 2.67252779,15.4193891 C3.07750442,15.4193891 3.48266805,15.4281787 3.88727065,15.4169579 C4.30487065,15.4054566 4.88077714,15.5979865 5.09743169,15.3423397 C5.32596156,15.0723865 5.1984187,14.5136852 5.26041351,14.0859865 C5.30978494,13.7457164 5.15297455,13.7060696 4.87133299,13.7095294 C3.85912519,13.7218722 2.84654338,13.7053216 1.83442909,13.7185995 C1.40289662,13.7243034 0.856725195,13.53168 0.569473247,13.8009787 C0.273057662,14.0785995 0.350013506,14.6452488 0.242761558,15.079867 C0.174127792,15.3581423 0.246501818,15.4303294 0.523374545,15.4244384" id="Fill-53"></path>
                <path d="M62.6580281,26.7337029 C62.6470878,26.2274587 62.3613319,25.9027106 61.8680852,25.7668457 C61.3729683,25.6304197 60.9187138,25.7626379 60.4768021,25.9831262 C60.3947034,26.0239886 60.2820281,26.1931418 60.2114306,26.0430639 C59.9744852,25.5395314 59.6938722,26.0072509 59.4468281,26.008186 C59.1646255,26.0092145 59.2990878,26.2991782 59.2918878,26.4584197 C59.2721579,26.8932249 59.2851553,27.3296197 59.2851553,27.7654535 C59.2851553,28.2634691 59.3099345,28.7631678 59.2773008,29.2591262 C59.2509319,29.658773 59.5053631,29.5881756 59.7251969,29.5770483 C59.9419449,29.5661081 60.2427553,29.7044977 60.2259242,29.2595003 C60.1994618,28.5600717 60.2173216,27.85896 60.2194722,27.1585964 C60.2208748,26.7375366 60.5593683,26.4692665 61.1038566,26.4517808 C61.5379138,26.4378483 61.7302566,26.6329029 61.7348384,27.1189496 C61.7415709,27.8347418 61.7563449,28.5514691 61.7293216,29.2665132 C61.7139865,29.6708353 61.9752436,29.5910743 62.1870358,29.5739626 C62.3754514,29.5586275 62.6806566,29.7357288 62.6712125,29.3015782 C62.6524177,28.4459938 62.6765423,27.5892873 62.6580281,26.7337029" id="Fill-55"></path>
                <path d="M93.8227138,27.2089964 C93.4241891,27.1854327 93.0231397,27.203386 92.5720644,27.203386 C92.6871709,26.7250068 92.8565112,26.3854847 93.3496644,26.3583678 C93.7063917,26.3388249 93.9315553,26.5317288 94.0555449,26.844134 C94.1375501,27.0507834 94.1583086,27.2288197 93.8227138,27.2089964 M93.9497891,25.8020042 C92.96928,25.4920301 91.9510878,26.0574639 91.6575709,27.0749081 C91.3191709,28.2480405 91.8548696,29.3689029 92.9085943,29.5940665 C93.5028281,29.7211418 94.1125839,29.6935574 94.6963449,29.4640925 C94.8481995,29.4044353 95.0054774,29.371147 94.913654,29.1512197 C94.841467,28.9784197 94.7865787,28.7940249 94.5251345,28.9023055 C94.1988904,29.0376094 93.8519813,29.0070327 93.5126462,28.9837496 C93.0613839,28.952986 92.7747865,28.6963106 92.631067,28.2733808 C92.522319,27.9536821 92.5253112,27.7279574 92.9752644,27.7768613 C93.2518566,27.8069704 93.5342462,27.7824717 93.8140177,27.7822847 C94.1715865,27.7820977 94.5292488,27.7788249 94.8866306,27.7836873 C95.0299761,27.7856509 95.1005735,27.7599366 95.1174047,27.584986 C95.186319,26.8673236 94.6431397,26.0212769 93.9497891,25.8020042" id="Fill-57"></path>
                <path d="M88.0786379,27.106906 C88.0245912,27.3118722 87.7581912,27.1682462 87.5896925,27.2009735 C87.5146068,27.2155605 87.4343782,27.2034047 87.3564873,27.2034047 C87.2630743,27.2034047 87.1670431,27.2176177 87.0769029,27.200319 C86.9202795,27.1704904 86.6908145,27.3074774 86.6189081,27.1202774 C86.5439158,26.9252229 86.6910951,26.7268021 86.8315418,26.5828956 C87.1065444,26.3011605 87.4359678,26.2730151 87.7649236,26.4776073 C87.9891522,26.6172125 88.1425964,26.8642566 88.0786379,27.106906 M87.9539938,25.8053891 C86.9454327,25.4781164 85.9569756,26.0358826 85.6452249,27.1082151 C85.3128094,28.2511449 85.8498171,29.3658358 86.8883938,29.5923086 C87.4830951,29.7220956 88.0926639,29.6927345 88.6772665,29.4660748 C88.8471678,29.4002462 88.9921964,29.3707917 88.8892457,29.1143034 C88.7977964,28.8864281 88.6968094,28.8324748 88.4742639,28.914667 C88.1454951,29.0361319 87.7980249,29.0135034 87.4588769,28.9802151 C86.9622639,28.9314982 86.6184405,28.5415761 86.5729029,28.0516956 C86.55336,27.8407449 86.6161029,27.7730462 86.8209756,27.7796852 C87.1473132,27.7904384 87.4743055,27.7826774 87.8010171,27.7824904 C88.158773,27.7823034 88.5167158,27.7828644 88.8744717,27.7819294 C88.9995834,27.7815553 89.1029081,27.7895969 89.1245081,27.6000592 C89.2016509,26.9218566 88.6276145,26.0240073 87.9539938,25.8053891" id="Fill-59"></path>
                <path d="M79.5849849,28.2661527 C79.6424914,28.5700488 79.5831148,28.7658514 79.3217642,28.8787138 C79.0250681,29.0069112 78.7254732,29.0740488 78.4370057,28.8972281 C78.1370369,28.7133008 78.1822005,28.2443657 78.5152706,28.05408 C78.7898992,27.8972696 79.1052966,27.8664125 79.4117174,27.8649096 C79.7821901,27.8632332 79.5121434,28.1743294 79.5849849,28.2661527 M80.5251927,27.9354203 C80.5251927,27.5198774 80.5305226,27.1776436 80.5239771,26.8357839 C80.5133174,26.2814774 80.2494421,25.9469112 79.7119668,25.7914099 C79.0979096,25.6137475 78.5162992,25.7556904 77.9391771,25.9652384 C77.7807771,26.0227449 77.6394888,26.0699657 77.7359875,26.2843761 C77.8151875,26.4603553 77.8701694,26.6188488 78.1359148,26.4928956 C78.4474784,26.3452488 78.7963512,26.3074722 79.139146,26.3647917 C79.5234577,26.4291242 79.6015356,26.7096436 79.6063979,27.0560852 C79.6119148,27.4609683 79.3133486,27.2804073 79.1438213,27.3057475 C78.7615668,27.363254 78.3699616,27.3625995 78.0180966,27.557654 C77.5274681,27.8296644 77.2670525,28.3514306 77.3838421,28.838693 C77.5102629,29.3663501 77.9107512,29.6477112 78.5316343,29.6518644 C78.8182317,29.6537891 79.081733,29.5815086 79.3328914,29.4451761 C79.4177018,29.3990774 79.5377642,29.249654 79.6070525,29.3754203 C79.8077174,29.7397216 80.1305953,29.5246566 80.3932551,29.5768332 C80.5625953,29.6104956 80.6683512,29.5435449 80.6055148,29.3447501 C80.4513226,28.8573008 80.5625018,28.3556384 80.5251927,27.9354203" id="Fill-61"></path>
                <path d="M57.8526639,25.8050338 C57.6390016,25.8170961 57.3328613,25.6673922 57.3504405,26.117813 C57.3771834,26.8020935 57.3582951,27.4882442 57.3570795,28.1736468 C57.3563314,28.6359429 57.0520613,28.904213 56.5170171,28.9171169 C56.0665964,28.9281506 55.9248405,28.7572208 55.9222223,28.1844935 C55.9191366,27.4834753 55.9064197,26.7820831 55.9272717,26.0817195 C55.9388665,25.6942286 55.6733081,25.7881091 55.4885392,25.8109247 C55.3076977,25.8333662 54.9793029,25.6104468 54.9837912,26.0534805 C54.9928613,26.9412312 54.9772457,27.8295429 55.00296,28.716826 C55.017921,29.2299896 55.3531418,29.5723169 55.8314275,29.6320675 C56.1754379,29.674987 56.5078535,29.6254286 56.8431678,29.5269662 C57.0445808,29.4676831 57.2833029,29.0171688 57.4895782,29.5342597 C57.4951886,29.5481922 57.5761652,29.5337922 57.6217029,29.5295844 C58.1747938,29.4782494 58.2881236,29.3515481 58.2882171,28.7851792 L58.2882171,27.6168156 C58.2882171,27.118426 58.2609132,26.6178857 58.2967262,26.1221143 C58.3259938,25.7178857 58.0709081,25.7925974 57.8526639,25.8050338" id="Fill-63"></path>
                <path d="M6.74534338,8.56788353 C6.91159792,8.56834597 7.03296935,8.53683429 7.13227325,8.37936935 C7.44626805,7.88210182 7.77868364,7.3965226 8.15280312,6.83277195 C6.7572187,6.83277195 5.42671481,6.83221091 4.09621091,6.83454857 C4.02187325,6.83464208 3.91733299,6.83305247 3.87796675,6.87756156 C3.43278234,7.38053299 3.05847584,7.93166026 2.67379013,8.56591481 C4.10715117,8.56591481 5.42624727,8.56423169 6.74534338,8.56788353" id="Fill-65"></path>
                <path d="M9.70376727,5.12622234 C9.77539325,5.12603532 9.86216727,5.09676779 9.91593351,5.05057558 C10.5841309,4.47700675 11.3069361,3.97777558 12.0221673,3.42244052 C10.5607543,3.42244052 9.09924779,3.42225351 7.63783481,3.42262753 C7.52871273,3.42262753 7.42118026,3.42590026 7.32748675,3.49752623 C6.68986597,3.98422753 6.05654649,4.47569766 5.44183481,5.12949506 C6.9191439,5.12949506 8.31145558,5.13061714 9.70376727,5.12622234" id="Fill-67"></path>
                <path d="M5.3711439,11.9834219 C5.53216208,11.9838857 5.63071792,11.9404052 5.68036987,11.7759273 C5.82736208,11.2881039 5.98492052,10.8035532 6.15126857,10.2767377 C4.72838026,10.2767377 3.33316987,10.2763636 1.93795948,10.2774857 C1.84735169,10.2775792 1.74879584,10.2676675 1.70064,10.3769766 C1.47435429,10.8908883 1.21590234,11.3930182 1.08368416,11.9808935 C2.54350753,11.9808935 3.95732571,11.9790234 5.3711439,11.9834219" id="Fill-69"></path>
                <path d="M98.4447117,28.9316571 C97.6440156,29.1552312 97.0538026,28.9064104 96.7985299,28.2840312 C96.5857091,27.7652571 96.6021662,27.244613 96.9686182,26.7875532 C97.3535844,26.3074909 97.8692727,26.2700883 98.4082442,26.4439169 C98.6956831,26.5365818 98.7947065,26.4616831 98.8911117,26.1804156 C99.018561,25.8089143 98.7108312,25.8684779 98.5697299,25.8244364 C98.3361506,25.7514078 98.0815325,25.7277506 97.8344883,25.7192416 C96.5814078,25.675574 95.6722442,26.5140468 95.6716828,27.7011117 C95.6711221,28.9426909 96.4987481,29.6911169 97.8675896,29.6443636 C98.0838701,29.6161247 98.3525143,29.6580156 98.6068519,29.5545039 C98.7650649,29.4902649 99.018,29.5251429 98.9273922,29.2261091 C98.8555792,28.9887896 98.7868519,28.8360935 98.4447117,28.9316571" id="Fill-71"></path>
                <path d="M90.6424925,23.9202888 C90.2194691,23.8884031 89.8647055,24.1193642 89.8641444,24.4178369 C89.8611522,26.0372758 89.8730275,27.6567148 89.8561029,29.2757797 C89.851334,29.7337745 90.1612145,29.5570473 90.3665548,29.5755616 C90.5897548,29.5956655 90.8266068,29.6479356 90.8125808,29.2530577 C90.7831262,28.4132758 90.8036977,27.5717174 90.8036977,26.730907 C90.8036977,25.9367564 90.8154795,25.1423252 90.7921964,24.3489226 C90.7882691,24.2144603 90.9757496,23.9454421 90.6424925,23.9202888" id="Fill-73"></path>
                <path d="M88.8561912,12.8674379 C89.6478171,12.8878223 90.4403782,12.8866068 91.2320977,12.8699626 C91.518134,12.8639782 91.6824249,12.6742535 91.6810312,12.379334 C91.6796197,12.0743158 91.50336,11.9270431 91.2097496,11.9221808 C90.8216042,11.9156353 90.4331782,11.9205912 90.0449392,11.9208717 C89.6566068,11.9211522 89.2681808,11.9159158 88.8800353,11.9228353 C88.587547,11.9281652 88.4023106,12.0864717 88.3965132,12.3782119 C88.3907158,12.6678016 88.5776353,12.8603314 88.8561912,12.8674379" id="Fill-75"></path>
                <path d="M90.3847979,11.4545268 C90.6842992,11.4490099 90.8914161,11.2776125 90.8880499,10.9598774 C90.8845901,10.6383086 90.6727979,10.4937475 90.3686213,10.4874826 C89.9963719,10.4798151 89.6236551,10.485706 89.2511252,10.485519 C88.8786888,10.4854255 88.5059719,10.4791605 88.1336291,10.4872956 C87.8345953,10.4939345 87.621494,10.6169891 87.6127044,10.9524904 C87.6039148,11.2846255 87.80832,11.4458306 88.1036135,11.4526566 C88.8636343,11.4700488 89.6245901,11.4685527 90.3847979,11.4545268" id="Fill-77"></path>
                <path d="M84.0645257,11.4547979 C84.3612218,11.448907 84.5615127,11.2900395 84.5599325,10.9582784 C84.5581465,10.6186629 84.3476634,10.4952343 84.0487231,10.4874732 C83.6764738,10.4779356 83.3037569,10.4852291 82.931227,10.4854161 C82.5586971,10.4856031 82.1860738,10.4807408 81.8137309,10.4870057 C81.5101153,10.4921486 81.2984166,10.6319408 81.2872894,10.9537901 C81.2760686,11.2776966 81.4872997,11.4461953 81.7832478,11.4529278 C82.5432686,11.4702265 83.3043179,11.469946 84.0645257,11.4547979" id="Fill-79"></path>
                <path d="M82.5862348,12.8721881 C83.345227,12.8875231 84.1047803,12.8844374 84.8639595,12.8744322 C85.1684166,12.8704114 85.368614,12.6998556 85.3738504,12.3871699 C85.3793673,12.0599906 85.1657984,11.9239387 84.8600322,11.9202919 C84.4882504,11.9158036 84.1162816,11.9192634 83.7444062,11.9192634 L83.7444062,11.921227 C83.3570088,11.921227 82.9696114,11.9156166 82.582401,11.9230971 C82.2967387,11.928614 82.1099127,12.0563439 82.1033673,12.3696842 C82.0964478,12.698827 82.2852374,12.8662036 82.5862348,12.8721881" id="Fill-81"></path>
            </g>
        </g>
    </g>
</svg>