<?xml version="1.0" encoding="UTF-8"?>
<svg width="142px" height="72px" viewBox="0 0 142 72" version="1.1" xmlns="http://www.w3.org/2000/svg" xmlns:xlink="http://www.w3.org/1999/xlink">
    <!-- Generator: sketchtool 62 (101010) - https://sketch.com -->
    <title>83BBE445-2C01-4413-94F5-D6BC82B6B622</title>
    <desc>Created with sketchtool.</desc>
    <g id="Page-1" stroke="none" stroke-width="1" fill="none" fill-rule="evenodd" fill-opacity="0.25">
        <g id="Element" transform="translate(-322.000000, -8.000000)" fill="#FFFFFF">
            <path d="M408.262904,8.00000064 L408.422878,8.27966471 L426.391434,39.480572 L405.683,39.503 L410.875,48.519 L445.870967,48.480152 L446.031444,48.7589435 L464,79.9598508 L427.674135,79.9999994 L427.514528,79.7217103 L410.142,49.556 L375.147057,49.5951511 L375.125,49.556 L340.129033,49.5954271 L339.969427,49.3171381 L322,18.1157283 L358.325865,18.0755798 L358.347,18.114 L377.726,18.092 L371.937039,8.04014916 L408.262904,8.00000064 Z M445.226662,49.5961204 L411.472855,49.6332894 L428.318439,78.884031 L462.073117,78.8473644 L445.226662,49.5961204 Z M357.638,19.191 L323.927753,19.2287172 L340.773338,48.4794587 L374.484,48.442 L357.638,19.191 Z M378.367,19.207 L358.989,19.228 L375.834,48.479 L409.545535,48.4433886 L404.397,39.504 L390.065569,39.5207205 L378.367,19.207 Z M392.699584,19.1912721 L379.653,19.205 L390.709873,38.4047521 L403.756,38.39 L392.699584,19.1912721 Z M407.618096,9.11684156 L373.864793,9.15313809 L379.011,18.091 L393.343889,18.0753037 L405.041,38.389 L424.464551,38.3680856 L407.618096,9.11684156 Z" id="shape/cube" transform="translate(393.000000, 44.000000) scale(-1, -1) translate(-393.000000, -44.000000) "></path>
        </g>
    </g>
</svg>