<?xml version="1.0" encoding="UTF-8"?>
<svg width="48px" height="48px" viewBox="0 0 48 48" version="1.1" xmlns="http://www.w3.org/2000/svg" xmlns:xlink="http://www.w3.org/1999/xlink">
    <!-- Generator: sketchtool 62 (101010) - https://sketch.com -->
    <title>D96D69D2-2EB2-49E9-82E8-38BD69B3ED8E</title>
    <desc>Created with sketchtool.</desc>
    <g id="Page-1" stroke="none" stroke-width="1" fill="none" fill-rule="evenodd">
        <g id="Element" transform="translate(-168.000000, -24.000000)" fill="#959595">
            <g id="ico/dashboard_memory" transform="translate(168.000000, 24.000000)">
                <path d="M16.4640176,0.749983403 C15.6236672,0.748601677 14.9710271,1.06481356 14.4620636,1.72807959 L6.24954381,12.3897521 C5.94246769,12.792494 5.76048956,13.3278076 5.76048956,13.8296699 L5.75140557,25.0127903 C5.74869407,31.1791065 5.75003085,37.26986 5.75509449,43.2949747 C5.75727649,45.6474315 7.39890395,47.2473778 9.76627519,47.2484475 L38.2511686,47.2469311 C38.6915895,47.2469312 39.0227273,47.221054 39.3724856,47.1345382 C41.1992917,46.6858483 42.245653,45.1851072 42.2477698,43.1632749 L42.2490495,39.3162967 L42.2499865,14.4203124 L42.2477704,4.83922829 C42.2456496,2.30104049 40.6708081,0.759859915 38.1126978,0.759859915 L16.4640176,0.749983403 Z M8.26,13.874 L16.446,3.247 L16.4598525,3.24999827 L31.1450628,3.25999126 L38.1125665,3.25985991 C39.302397,3.25985991 39.7468134,3.69477729 39.7477709,4.84056199 L39.7499865,14.4205135 L39.7477706,43.1613628 C39.7468022,44.086145 39.4252959,44.5472645 38.7741758,44.7071896 C38.6855061,44.7291214 38.5668184,44.741397 38.3923665,44.7454299 L9.76713947,44.7484477 C8.76547969,44.7479951 8.25598272,44.2514343 8.25509348,43.2927362 L8.25064674,27.0658846 C8.25162875,23.7864921 8.25372583,20.4858216 8.256924,17.1623161 L8.26,13.874 Z" id="Path" fill-rule="nonzero"></path>
                <path d="M23.1583111,15.7543254 L27.1008,15.7543254 L27.1008,6.50754576 L23.1583111,6.50754576 L23.1583111,15.7543254 Z M17.6782667,15.7480881 L21.6177333,15.7480881 L21.6177333,6.51456271 L17.6782667,6.51456271 L17.6782667,15.7480881 Z M34.1267111,15.7574441 L38.0729778,15.7574441 L38.0729778,6.50910508 L34.1267111,6.50910508 L34.1267111,15.7574441 Z M10.4755556,25.1048 L14.4512889,25.1048 L14.4512889,15.8182576 L10.4755556,15.8182576 L10.4755556,25.1048 Z M28.6436444,15.7496475 L32.5952,15.7496475 L32.5952,6.5028678 L28.6436444,6.5028678 L28.6436444,15.7496475 Z" id="Fill-1"></path>
            </g>
        </g>
    </g>
</svg>