<?xml version="1.0" encoding="UTF-8"?>
<svg width="48px" height="48px" viewBox="0 0 48 48" version="1.1" xmlns="http://www.w3.org/2000/svg" xmlns:xlink="http://www.w3.org/1999/xlink">
    <!-- Generator: sketchtool 62 (101010) - https://sketch.com -->
    <title>537628CA-F04D-4FAE-B369-B34C7B2CB521</title>
    <desc>Created with sketchtool.</desc>
    <g id="Page-1" stroke="none" stroke-width="1" fill="none" fill-rule="evenodd">
        <g id="Element" transform="translate(-99.000000, -24.000000)" fill="#959595" fill-rule="nonzero">
            <g id="ico/dashboard_disk" transform="translate(99.000000, 24.000000)">
                <path d="M24,2 C33.9411255,2 42,4.23857625 42,7 C42,9.76142375 33.9411255,12 24,12 L23.1526572,11.9945578 C13.6049461,11.8716545 6,9.68252593 6,7 C6,4.27802516 13.8302656,2.06406603 23.5751222,2.00136555 L24,2 Z M24,4.5 C19.3741096,4.5 15.0603678,5.00682192 11.9411876,5.87326087 C10.7466684,6.20507176 9.78617386,6.57548082 9.12042584,6.94329981 L9.022,7 L9.12042584,7.05670019 C9.72565132,7.39108109 10.5744689,7.72760254 11.6212575,8.03531922 L11.9411876,8.12673913 C15.0603678,8.99317808 19.3741096,9.5 24,9.5 C28.6258904,9.5 32.9396322,8.99317808 36.0588124,8.12673913 C37.2533316,7.79492824 38.2138261,7.42451918 38.8795742,7.05670019 L38.977,7 L38.8795742,6.94329981 C38.2743487,6.60891891 37.4255311,6.27239746 36.3787425,5.96468078 L36.0588124,5.87326087 C32.9396322,5.00682192 28.6258904,4.5 24,4.5 Z" id="Oval"></path>
                <path d="M8.25,7 L8.25,15.253 L8.36088853,15.3168212 C12.3137731,17.526375 17.8113776,18.6809919 24.8553764,18.7469992 L25.5,18.75 C32.668025,18.75 37.381001,17.6449432 39.6226899,15.5902579 L39.75,15.469 L39.75,7 L42.25,7 L42.25,16.4321563 L41.9442118,16.7846412 C39.3066577,19.8249745 33.8318803,21.25 25.5,21.25 C17.5085886,21.25 11.2460632,19.9313694 6.71442612,17.2538413 L6.34079642,17.0275674 L5.75,16.6608662 L5.75,7 L8.25,7 Z" id="Path-5"></path>
                <path d="M42.25,28.4696689 L42.25,17.6608896 L40.1695452,19.5101828 C40.1264094,19.5485258 39.9602349,19.6671786 39.6501913,19.8425568 C39.0786273,20.1658657 38.3224714,20.4972016 37.360973,20.8120783 C34.5241165,21.7411073 30.623376,22.3055556 25.5,22.3055556 C17.6917094,22.3055556 11.7221139,21.1582459 7.59987816,18.9033477 L5.75,17.8914486 L5.75,28.698494 L6.34487822,29.0645729 C10.9026496,31.8693553 17.2881314,33.25 25.5,33.25 C33.8304873,33.25 39.3029211,31.837759 41.9407209,28.8231308 L42.25,28.4696689 Z M8.25,21.995 L8.39894191,22.0594488 C12.7475195,23.8986409 18.446028,24.8055556 25.5,24.8055556 C30.876624,24.8055556 35.0383835,24.2033371 38.139027,23.1879217 L38.4556162,23.0816788 C38.8684232,22.9397073 39.2441159,22.7966588 39.5842925,22.6546894 L39.75,22.583 L39.75,27.499 L39.6261969,27.6168961 C37.3844359,29.6538596 32.6693271,30.75 25.5,30.75 L24.8552489,30.747024 C17.8098455,30.6815629 12.3107574,29.5365013 8.35696526,27.3453399 L8.25,27.285 L8.25,21.995 Z" id="Path-5-Copy"></path>
                <path d="M42.25,40.4696689 L42.25,29.6608896 L40.1695452,31.5101828 C40.1264094,31.5485258 39.9602349,31.6671786 39.6501913,31.8425568 C39.0786273,32.1658657 38.3224714,32.4972016 37.360973,32.8120783 C34.5241165,33.7411073 30.623376,34.3055556 25.5,34.3055556 C17.6917094,34.3055556 11.7221139,33.1582459 7.59987816,30.9033477 L5.75,29.8914486 L5.75,40.698494 L6.34487822,41.0645729 C10.9026496,43.8693553 17.2881314,45.25 25.5,45.25 C33.8304873,45.25 39.3029211,43.837759 41.9407209,40.8231308 L42.25,40.4696689 Z M8.25,33.995 L8.39894191,34.0594488 C12.7475195,35.8986409 18.446028,36.8055556 25.5,36.8055556 C30.876624,36.8055556 35.0383835,36.2033371 38.139027,35.1879217 L38.4556162,35.0816788 C38.8684232,34.9397073 39.2441159,34.7966588 39.5842925,34.6546894 L39.75,34.583 L39.75,39.499 L39.6261969,39.6168961 C37.3844359,41.6538596 32.6693271,42.75 25.5,42.75 L24.8552489,42.747024 C17.8098455,42.6815629 12.3107574,41.5365013 8.35696526,39.3453399 L8.25,39.285 L8.25,33.995 Z" id="Path-5-Copy-2"></path>
            </g>
        </g>
    </g>
</svg>