<?xml version="1.0" encoding="UTF-8"?>
<svg width="48px" height="48px" viewBox="0 0 48 48" version="1.1" xmlns="http://www.w3.org/2000/svg" xmlns:xlink="http://www.w3.org/1999/xlink">
    <!-- Generator: sketchtool 62 (101010) - https://sketch.com -->
    <title>2A54321B-73F7-4658-BED1-47B421F1BBD5</title>
    <desc>Created with sketchtool.</desc>
    <g id="Page-1" stroke="none" stroke-width="1" fill="none" fill-rule="evenodd">
        <g id="Element" transform="translate(-242.000000, -24.000000)" fill="#959595">
            <g id="ico/dashboard_network" transform="translate(242.000000, 24.000000)">
                <path d="M35.2064927,38.25767 C35.7612824,37.9338577 36.1419507,37.4804537 36.5925785,37.1136662 C36.6395513,37.0754662 36.6807496,36.989516 36.672199,36.9336594 C36.6609833,36.8601465 36.5789197,36.8452662 36.498855,36.8382703 C35.7137544,36.7694213 35.4467979,36.9784113 35.3038808,37.7801689 C35.27834,37.922864 35.2461364,38.0645597 35.2064927,38.25767 M6.07259642,27.0487205 C6.24771717,28.0309292 6.44005017,28.8538968 6.75586717,29.7462686 C7.03725967,29.2546645 7.26868113,28.8405711 7.51054099,28.4328074 C7.59649118,28.2881135 7.5566254,28.2098255 7.43136464,28.1147695 C7.01016426,27.7950658 6.59829181,27.463036 6.07259642,27.0487205 M37.883164,12.2673966 C37.5607952,11.900387 37.3233772,11.6028927 37.0579755,11.332938 C35.3835013,9.62959171 33.4668341,8.27526535 31.2672198,7.32825853 C30.9957104,7.21132629 30.8954352,7.23331355 30.8529043,7.55979104 C30.7745053,8.16244184 30.6471346,8.7595403 30.5205413,9.35486201 C30.4800093,9.54519617 30.4835628,9.65080164 30.6895545,9.74063847 C31.7471639,10.2021488 32.4263259,11.0207856 32.8328681,12.0817264 C32.8907235,12.232861 32.949023,12.3296938 33.1430217,12.3138141 C34.6843509,12.1884423 36.2292335,12.2136499 37.883164,12.2673966 M20.1989665,6.19280535 C22.3925844,7.39710753 24.3977558,8.66459531 26.2134815,10.2111436 C26.3828278,10.3551713 26.4879891,10.3091979 26.6380133,10.1941535 C27.1421656,9.80704444 27.6978436,9.52787287 28.3394718,9.45202793 C28.5401333,9.42826392 28.6552888,9.35452887 28.6934889,9.12177485 C28.8156403,8.37654 28.9601122,7.63463656 29.1161329,6.89573138 C29.1762092,6.61134061 29.0779328,6.51872761 28.8097549,6.44765768 C25.9974955,5.7035333 23.168135,5.61680578 20.1989665,6.19280535 M31.5942525,24.7929165 C31.8236751,24.8616545 31.915955,24.7551606 32.008568,24.5900341 C32.1896853,24.2666659 32.4090026,23.9551797 32.7124934,23.7441909 C32.9858906,23.5541899 32.9664574,23.3609685 32.8857264,23.0877934 C32.3604752,21.3099347 31.5583844,19.6567815 30.6770062,18.0339441 C30.379623,17.4862614 30.0800188,17.0832727 29.3760934,17.357003 C29.2473902,17.406974 29.0818194,17.3775467 28.9354598,17.3628885 C28.6843831,17.3376809 28.5990991,17.449505 28.527585,17.6884776 C27.9464773,19.629464 27.3542649,21.5673411 26.7383995,23.4976671 C26.6500063,23.7745066 26.7089721,23.8526836 26.9510541,23.915536 C28.4889407,24.3140829 30.0561438,24.5577195 31.5942525,24.7929165 M35.8215808,32.2371586 C35.7778284,32.8968874 35.7244149,33.7995866 35.6543444,34.7010642 C35.6339117,34.9636898 35.6427955,35.1038308 35.9851527,35.0609668 C36.791019,34.9602474 37.5977738,34.8744082 38.3983099,34.7309358 C38.6205145,34.69107 38.7612108,34.6001227 38.8835843,34.4215595 C40.3180864,32.328439 41.3102893,30.0460948 41.8468672,27.5645328 C41.9013912,27.3125676 41.8369841,27.2464948 41.5853521,27.2432745 C40.6810983,27.2318366 39.7768445,27.2064069 38.873257,27.1694284 C38.6433901,27.1601004 38.5618818,27.2520472 38.4960311,27.4561511 C38.1069232,28.6628963 37.3116063,29.4773133 36.0937564,29.8499862 C35.8185825,29.9342707 35.793486,30.0691926 35.8105872,30.3309298 C35.8466774,30.8831654 35.8215808,31.4392876 35.8215808,32.2371586 M25.5708538,15.5340593 C25.5048921,15.5582675 25.4531443,15.578478 25.4007302,15.5963565 C23.2273229,16.3342623 21.152303,17.2803807 19.2063195,18.5042271 C19.0001057,18.6339298 18.9275921,18.7515283 19.015208,18.9889463 C19.2376347,19.5918192 19.2948238,20.2109049 19.1251443,20.8389854 C19.072175,21.035205 19.1419124,21.1312605 19.3266942,21.2169886 C21.0171591,22.001645 22.7459352,22.6864704 24.5220171,23.2531421 C24.7700956,23.3322074 24.8783662,23.2776834 24.960874,23.0269398 C25.6124964,21.0466428 26.2497938,19.0623482 26.7819299,17.0456279 C26.8240166,16.8862758 26.8902005,16.7425812 26.6994221,16.6123234 C26.3300806,16.3603583 26.0237025,16.0395442 25.7739584,15.6669823 C25.7213222,15.5885833 25.6643552,15.5209558 25.5708538,15.5340593 M7.61270401,16.1059501 C6.37131222,18.6955607 5.81152547,21.3929977 5.8061939,24.2161396 C5.80586209,24.3592789 5.86827037,24.4313483 5.9804276,24.5238502 C6.7495375,25.1579272 7.51042994,25.8025537 8.25988456,26.4598395 C8.51229386,26.6813778 8.63766566,26.6150829 8.80901082,26.3624515 C9.83652654,24.8474405 10.9637623,23.4089407 12.1893854,22.0487289 C12.3172002,21.9068111 12.4215842,21.7957643 12.3283049,21.574115 C12.0507991,20.9143861 11.9417511,20.2268956 12.0924416,19.5158632 C12.1273103,19.3507366 12.0985492,19.242466 11.9448604,19.1467437 C10.4560565,18.2207247 9.04587357,17.1804386 7.61270401,16.1059501 M23.7202595,42.1657388 C26.9289558,42.1721796 29.6889121,41.4662553 32.3159454,40.1661197 C32.858742,39.8974976 33.2208655,39.6067772 33.2500708,38.9601519 C33.2699482,38.5209619 33.3618949,38.0788847 33.4742742,37.6519099 C33.580546,37.2479218 33.5256889,37.1214395 33.0598477,37.1383186 C30.2057237,37.2420363 27.368701,37.0686923 24.5653254,36.4908049 C24.300812,36.436281 24.1231371,36.5155684 23.9254739,36.6908002 C23.3583581,37.1928426 22.7030711,37.545194 21.9274094,37.5270933 C21.5649528,37.5185427 21.4521293,37.6875559 21.3443029,37.9697258 C20.9165507,39.0889661 20.494462,40.2113158 20.0262888,41.3137881 C19.8718228,41.6779104 19.9955289,41.7442053 20.3017958,41.8010613 C21.5221998,42.0271525 22.7489334,42.180286 23.7202595,42.1657388 M9.05608987,29.3705974 C8.80690093,29.8118972 8.57770041,30.2108882 8.35538478,30.6138769 C8.1863716,30.920366 8.04556431,31.2441784 7.85656271,31.5373418 C7.65878842,31.8442751 7.719531,32.0976838 7.87977148,32.3995089 C10.0692806,36.5205655 13.3728108,39.3706918 17.7018579,41.0685968 C18.0359976,41.199743 18.1731404,41.1635418 18.2999558,40.8123009 C18.7002794,39.7040541 19.1168158,38.6004714 19.5726628,37.5142119 C19.7436748,37.1066703 19.7731022,36.8363825 19.3796635,36.5426638 C19.0886099,36.3253452 18.8327582,35.9839875 18.7893389,35.6271942 C18.6816235,34.7440393 18.0685343,34.4402154 17.3536153,34.2033526 C17.1965951,34.1513827 17.0475704,34.0744273 16.8965468,34.0052452 C14.1377009,32.7427545 11.5463136,31.1949847 9.05608987,29.3705974 M30.9872709,35.2788405 C31.7807,35.2788405 32.5743513,35.2664033 33.3673362,35.2848371 C33.6909265,35.2922772 33.7980866,35.1856723 33.8312896,34.8578622 C33.9918632,33.273447 33.9980818,31.6859224 34.0010814,30.0967322 C34.0016353,29.8132298 33.8296239,29.7843576 33.6435095,29.7019609 C32.4780737,29.1858155 31.7657087,28.2959978 31.5497228,27.0416135 C31.4924226,26.7084732 31.3714927,26.6018683 31.0414617,26.5546735 C29.470261,26.3301369 27.9032801,26.0692881 26.3710568,25.648865 C26.0043804,25.5482566 25.9767298,25.7520274 25.8934447,25.9791181 C25.2279414,27.7947327 24.564548,29.6114578 23.8851639,31.4218532 C23.7883312,31.680259 23.8087638,31.8388338 24.0082037,32.0450477 C24.6208488,32.6782363 24.9796409,33.4386846 24.9368878,34.3367198 C24.9220076,34.6474286 25.0341648,34.7509242 25.3145579,34.8008952 C27.1912482,35.1354792 29.0833741,35.3031598 30.9872709,35.2788405 M36.1583856,14.0553606 C35.2148213,14.037482 34.2734778,14.0779031 33.3319123,14.1387567 C33.0466332,14.1571904 32.9312556,14.2421412 32.8572984,14.5347494 C32.706608,15.1299601 32.4196631,15.6764212 31.9711452,16.1073937 C31.7809221,16.2900657 31.7929152,16.4088857 31.9248387,16.6141001 C33.0994914,18.4417078 33.9592155,20.415342 34.5936256,22.4881409 C34.6790206,22.7672014 34.8070575,22.8447121 35.0943355,22.8504865 C36.6306675,22.8812465 37.7128183,23.6365866 38.3606651,25.0097909 C38.4804845,25.2638659 38.5957511,25.3694713 38.882807,25.3673614 C39.8076044,25.3602545 40.7347339,25.3528143 41.656422,25.4133348 C42.0310938,25.4379872 42.1389202,25.3467067 42.1567988,24.9991304 C42.3519079,21.1975554 41.4222244,17.6861456 39.4619159,14.4341411 C39.3423185,14.2358116 39.2108391,14.1606329 38.9841927,14.1475294 C38.0427382,14.0928944 37.102061,14.0322628 36.1583856,14.0553606 M13.7166116,23.198285 C13.5663653,23.1847373 13.5150617,23.3213248 13.4311104,23.4127163 C12.2668961,24.6814256 11.2209466,26.0418595 10.2612804,27.4708093 C10.1001516,27.7107813 10.0747219,27.8424828 10.3463422,28.0395908 C12.8785416,29.8776369 15.5584332,31.4536126 18.4278817,32.7085521 C18.7673516,32.8571327 18.8928345,32.7538592 19.0729523,32.48979 C19.7116933,31.5535547 20.6191675,31.0707233 21.7499567,31.0902676 C22.0504493,31.0954868 22.1337343,30.9764446 22.2125775,30.761347 C22.8530953,29.0150256 23.4823973,27.2643733 24.1430145,25.5257141 C24.2757154,25.176361 24.2146397,25.0574299 23.8658418,24.9528239 C22.0272405,24.4008104 20.2464946,23.6952192 18.521272,22.8537069 C18.2560923,22.7243374 18.0833036,22.7457694 17.8368908,22.9285524 C16.6360311,23.8193695 15.3350072,23.9303053 13.9694651,23.333651 C13.8852916,23.2968945 13.8067816,23.2469235 13.7166116,23.198285 M25.3002329,11.9343673 C25.3058963,11.8248752 25.3086724,11.8216549 24.9863037,11.5548095 C22.8133405,9.75596293 20.4025153,8.33434223 17.8878613,7.07651552 C17.7119632,6.98845543 17.5606064,6.97157632 17.3700502,7.04953115 C13.7278273,8.54111131 10.7985247,10.8939702 8.66564945,14.2184883 C8.54516371,14.4061573 8.50896246,14.5210907 8.72083969,14.6680056 C10.0861597,15.6142351 11.4449279,16.5696814 12.8043624,17.5243505 C12.9371743,17.6176298 13.0220141,17.6473903 13.1769243,17.5121353 C14.5239216,16.3354838 15.9928482,16.2778505 17.5301796,17.0984861 C17.7421679,17.2117538 17.8821979,17.202759 18.0757524,17.0742779 C20.1469967,15.7001853 22.3878093,14.6794434 24.7396688,13.8904561 C24.8468289,13.854477 25.0438259,13.8753538 25.0356084,13.7006772 C25.0074025,13.1026904 25.0990161,12.5270239 25.3002329,11.9343673 M24.001652,4 C35.1323135,3.96953806 44.2785693,13.1558818 43.9935123,24.5350659 C43.719893,35.4632892 34.6025094,44.2426465 23.5272602,43.9829081 C12.7075296,43.7291663 3.98491722,34.8864013 4,23.9195337 C4.01512194,12.9327888 12.964825,4 24.001652,4" id="Fill-1"></path>
            </g>
        </g>
    </g>
</svg>