<?xml version="1.0" encoding="UTF-8"?>
<svg width="48px" height="48px" viewBox="0 0 48 48" version="1.1" xmlns="http://www.w3.org/2000/svg" xmlns:xlink="http://www.w3.org/1999/xlink">
    <!-- Generator: sketchtool 62 (101010) - https://sketch.com -->
    <title>BA619AB5-7FE5-4873-8611-72BD31FE378F</title>
    <desc>Created with sketchtool.</desc>
    <g id="Page-1" stroke="none" stroke-width="1" fill="none" fill-rule="evenodd">
        <g id="Element" transform="translate(-25.000000, -24.000000)" fill="#959595">
            <g id="ico/dashboard_cpu" transform="translate(25.000000, 24.000000)">
                <path d="M24.1690364,3.33392988 C26.0090364,3.32362667 27.8757031,3.54762667 29.6943698,4.02229333 C37.6143698,6.10229333 44.2650364,12.4382933 46.1743698,20.5076267 C48.3450364,29.7076267 44.8250364,38.9662933 37.2677031,44.57696 C36.7823698,44.94496 35.8757031,44.9236267 35.3797031,44.57696 C28.5743698,39.8036267 19.9130364,39.7662933 13.0810364,44.4596267 C12.7077031,44.8276267 12.1903698,45.0302933 11.6463698,44.8916267 C11.3050364,44.8276267 11.0117031,44.6462933 10.7663698,44.3956267 C7.65170308,42.0436267 4.97436975,39.0142933 3.43303642,35.3876267 C-0.0176302487,27.2542933 1.12370308,17.7502933 7.08103642,11.0622933 C11.4063698,6.20362667 17.7050364,3.36629333 24.1263698,3.33392988 L24.1263698,3.33392988 Z M25.7346098,6.147627 L25.7346098,9.03368794 C25.7346098,11.0775132 22.5734185,11.0775132 22.5734185,9.03368794 L22.5734185,9.03368794 L22.5734185,6.17570152 C18.7552834,6.5182107 15.0831359,7.93316665 12.0398576,10.1847434 C12.7978697,10.9371406 13.5558818,11.7007676 14.308279,12.4531648 C15.7569244,13.8961953 13.5165775,16.1365422 12.0791619,14.6935117 C11.2762306,13.8849655 10.4676843,13.0764192 9.65352316,12.267873 C7.87359842,14.1039467 6.44741267,16.2881446 5.53779813,18.7643175 C5.02122691,20.1399691 4.67871773,21.5436953 4.47096627,22.9474214 L4.47096627,22.9474214 L8.65407015,22.9474214 C10.6922805,22.9474214 10.6922805,26.1142276 8.65407015,26.1142276 L8.65407015,26.1142276 L4.24637008,26.1142276 C4.2688297,30.443319 5.65571113,34.676957 8.28348645,38.1638127 C9.54683998,36.9004592 10.8101935,35.6314908 12.0791619,34.3737522 C13.5165775,32.9307217 15.7569244,35.1598388 14.308279,36.6084842 L14.308279,36.6084842 L10.5126036,40.4097745 C10.4676843,40.4490789 10.42838,40.4771534 10.3722309,40.5164577 C10.6978954,40.8308924 11.0460195,41.1284823 11.3885287,41.4260723 C19.1707864,36.5860246 29.0923227,36.5860246 36.8689655,41.4204574 C37.2227045,41.1284823 37.5708286,40.8196626 37.9021079,40.499613 C37.8684185,40.4715385 37.8234993,40.443464 37.7954248,40.4097745 C36.5264563,39.1408061 35.251873,37.8774526 33.9941344,36.6084842 C32.545489,35.1598388 34.780221,32.9307217 36.2288664,34.3737522 C37.4753752,35.620261 38.7331138,36.8779996 39.9796226,38.1301233 C42.5737085,34.6713421 44.072888,30.4096295 44.1290371,26.1142276 L44.1290371,26.1142276 L39.6427284,26.1142276 C37.604518,26.1142276 37.604518,22.9474214 39.6427284,22.9474214 L39.6427284,22.9474214 L43.9156707,22.9474214 C43.6742298,21.3584034 43.2250375,19.7862301 42.545634,18.2814357 C41.5517959,16.0747782 40.192989,14.0758722 38.5646667,12.3577114 C37.7841949,13.1381832 37.0093381,13.91304 36.2288664,14.6935117 C34.780221,16.1365422 32.545489,13.8961953 33.9941344,12.4531648 C34.7296869,11.7119974 35.4652394,10.97083 36.2176366,10.2296626 C33.2248925,7.90509212 29.6145088,6.42837223 25.7346098,6.147627 L25.7346098,6.147627 Z M33.4362364,21.1902933 C34.1562364,20.9076267 34.9349031,21.15296 35.1535698,21.72896 C35.3829031,22.3102933 34.9775698,23.0142933 34.2522364,23.2862933 L34.2522364,23.2862933 L28.0442364,27.5796267 C27.6229031,28.6942933 26.7642364,29.6276267 25.5642364,30.09696 C23.3349031,30.96096 20.8335698,29.85696 19.9695698,27.6276267 C19.0949031,25.40896 20.1989031,22.9022933 22.4282364,22.03296 C23.6282364,21.56896 24.9029031,21.6756267 25.9535698,22.2142933 L25.9535698,22.2142933 Z M23.9749031,24.2302933 C23.7615698,24.2302933 23.5429031,24.2676267 23.3295698,24.3476267 C22.3802364,24.7156267 21.9055698,25.7822933 22.2789031,26.73696 C22.6415698,27.6862933 23.7082364,28.16096 24.6629031,27.7876267 C24.8815698,27.7022933 25.0575698,27.5796267 25.2282364,27.44096 C25.7775698,26.9396267 26.0069031,26.1342933 25.7135698,25.4036267 C25.4309031,24.6622933 24.7215698,24.2196267 23.9749031,24.2302933 Z" id="Combined-Shape"></path>
            </g>
        </g>
    </g>
</svg>